<mxfile host="Electron" modified="2023-08-21T15:19:40.182Z" agent="Mozilla/5.0 (X11; Linux x86_64) AppleWebKit/537.36 (KHTML, like Gecko) draw.io/21.6.8 Chrome/114.0.5735.289 Electron/25.5.0 Safari/537.36" etag="cc3QjNTKxNlth0rgalGF" version="21.6.8" type="device">
  <diagram name="Page-1" id="P9NH75M2bkHf4CHndn5H">
    <mxGraphModel dx="3676" dy="3740" grid="1" gridSize="10" guides="1" tooltips="1" connect="1" arrows="1" fold="1" page="1" pageScale="1" pageWidth="827" pageHeight="1169" math="0" shadow="0">
      <root>
        <mxCell id="0" />
        <mxCell id="1" parent="0" />
        <mxCell id="WgCXtVQOdJW3vV8rvmdJ-2451" value="" style="rounded=0;whiteSpace=wrap;html=1;fillColor=#f5f5f5;strokeColor=#666666;fontColor=#333333;shadow=1;" parent="1" vertex="1">
          <mxGeometry x="-2080" y="-3480" width="880" height="1060" as="geometry" />
        </mxCell>
        <mxCell id="WgCXtVQOdJW3vV8rvmdJ-2450" value="" style="rounded=0;whiteSpace=wrap;html=1;fillColor=#f5f5f5;strokeColor=#666666;fontColor=#333333;shadow=1;" parent="1" vertex="1">
          <mxGeometry x="-2110" y="-3460" width="880" height="1060" as="geometry" />
        </mxCell>
        <mxCell id="WgCXtVQOdJW3vV8rvmdJ-2449" value="" style="rounded=0;whiteSpace=wrap;html=1;fillColor=#f5f5f5;strokeColor=#666666;fontColor=#333333;shadow=1;" parent="1" vertex="1">
          <mxGeometry x="-2140" y="-3440" width="880" height="1060" as="geometry" />
        </mxCell>
        <mxCell id="WgCXtVQOdJW3vV8rvmdJ-857" value="" style="rounded=0;whiteSpace=wrap;html=1;" parent="1" vertex="1">
          <mxGeometry x="-2140" y="-3390" width="310" height="300" as="geometry" />
        </mxCell>
        <mxCell id="WgCXtVQOdJW3vV8rvmdJ-858" value="" style="endArrow=none;dashed=1;html=1;dashPattern=1 3;strokeWidth=3;rounded=0;entryX=0.5;entryY=1;entryDx=0;entryDy=0;exitX=0.5;exitY=0;exitDx=0;exitDy=0;" parent="1" edge="1">
          <mxGeometry width="50" height="50" relative="1" as="geometry">
            <mxPoint x="-2021" y="-3164" as="sourcePoint" />
            <mxPoint x="-2021" y="-3204" as="targetPoint" />
          </mxGeometry>
        </mxCell>
        <mxCell id="WgCXtVQOdJW3vV8rvmdJ-859" value="" style="rounded=0;whiteSpace=wrap;html=1;" parent="1" vertex="1">
          <mxGeometry x="-2130" y="-3380" width="290" height="60" as="geometry" />
        </mxCell>
        <mxCell id="WgCXtVQOdJW3vV8rvmdJ-860" value="" style="endArrow=none;dashed=1;html=1;dashPattern=1 3;strokeWidth=3;rounded=0;exitX=1;exitY=0.5;exitDx=0;exitDy=0;entryX=0;entryY=0.5;entryDx=0;entryDy=0;" parent="1" edge="1">
          <mxGeometry width="50" height="50" relative="1" as="geometry">
            <mxPoint x="-2007" y="-3348" as="sourcePoint" />
            <mxPoint x="-1967" y="-3348" as="targetPoint" />
          </mxGeometry>
        </mxCell>
        <mxCell id="WgCXtVQOdJW3vV8rvmdJ-861" value="" style="whiteSpace=wrap;html=1;aspect=fixed;" parent="1" vertex="1">
          <mxGeometry x="-2120" y="-3370" width="110" height="40" as="geometry" />
        </mxCell>
        <mxCell id="WgCXtVQOdJW3vV8rvmdJ-862" value="" style="whiteSpace=wrap;html=1;aspect=fixed;" parent="1" vertex="1">
          <mxGeometry x="-2080" y="-3370" width="110" height="40" as="geometry" />
        </mxCell>
        <mxCell id="WgCXtVQOdJW3vV8rvmdJ-863" value="" style="whiteSpace=wrap;html=1;aspect=fixed;" parent="1" vertex="1">
          <mxGeometry x="-2040" y="-3370" width="110" height="40" as="geometry" />
        </mxCell>
        <mxCell id="WgCXtVQOdJW3vV8rvmdJ-864" value="" style="whiteSpace=wrap;html=1;aspect=fixed;" parent="1" vertex="1">
          <mxGeometry x="-1960" y="-3370" width="110" height="40" as="geometry" />
        </mxCell>
        <mxCell id="WgCXtVQOdJW3vV8rvmdJ-865" value="" style="rounded=0;whiteSpace=wrap;html=1;" parent="1" vertex="1">
          <mxGeometry x="-2130" y="-3320" width="290" height="60" as="geometry" />
        </mxCell>
        <mxCell id="WgCXtVQOdJW3vV8rvmdJ-866" value="" style="endArrow=none;dashed=1;html=1;dashPattern=1 3;strokeWidth=3;rounded=0;exitX=1;exitY=0.5;exitDx=0;exitDy=0;entryX=0;entryY=0.5;entryDx=0;entryDy=0;" parent="1" edge="1">
          <mxGeometry width="50" height="50" relative="1" as="geometry">
            <mxPoint x="-2007" y="-3288" as="sourcePoint" />
            <mxPoint x="-1967" y="-3288" as="targetPoint" />
          </mxGeometry>
        </mxCell>
        <mxCell id="WgCXtVQOdJW3vV8rvmdJ-867" value="" style="whiteSpace=wrap;html=1;aspect=fixed;" parent="1" vertex="1">
          <mxGeometry x="-2120" y="-3310" width="110" height="40" as="geometry" />
        </mxCell>
        <mxCell id="WgCXtVQOdJW3vV8rvmdJ-868" value="" style="whiteSpace=wrap;html=1;aspect=fixed;" parent="1" vertex="1">
          <mxGeometry x="-2080" y="-3310" width="110" height="40" as="geometry" />
        </mxCell>
        <mxCell id="WgCXtVQOdJW3vV8rvmdJ-869" value="" style="whiteSpace=wrap;html=1;aspect=fixed;" parent="1" vertex="1">
          <mxGeometry x="-2040" y="-3310" width="110" height="40" as="geometry" />
        </mxCell>
        <mxCell id="WgCXtVQOdJW3vV8rvmdJ-870" value="" style="whiteSpace=wrap;html=1;aspect=fixed;" parent="1" vertex="1">
          <mxGeometry x="-1960" y="-3310" width="110" height="40" as="geometry" />
        </mxCell>
        <mxCell id="WgCXtVQOdJW3vV8rvmdJ-871" value="" style="rounded=0;whiteSpace=wrap;html=1;" parent="1" vertex="1">
          <mxGeometry x="-2130" y="-3260" width="290" height="60" as="geometry" />
        </mxCell>
        <mxCell id="WgCXtVQOdJW3vV8rvmdJ-872" value="" style="endArrow=none;dashed=1;html=1;dashPattern=1 3;strokeWidth=3;rounded=0;exitX=1;exitY=0.5;exitDx=0;exitDy=0;entryX=0;entryY=0.5;entryDx=0;entryDy=0;" parent="1" edge="1">
          <mxGeometry width="50" height="50" relative="1" as="geometry">
            <mxPoint x="-2007" y="-3228" as="sourcePoint" />
            <mxPoint x="-1967" y="-3228" as="targetPoint" />
          </mxGeometry>
        </mxCell>
        <mxCell id="WgCXtVQOdJW3vV8rvmdJ-873" value="" style="whiteSpace=wrap;html=1;aspect=fixed;" parent="1" vertex="1">
          <mxGeometry x="-2120" y="-3250" width="110" height="40" as="geometry" />
        </mxCell>
        <mxCell id="WgCXtVQOdJW3vV8rvmdJ-874" value="" style="whiteSpace=wrap;html=1;aspect=fixed;" parent="1" vertex="1">
          <mxGeometry x="-2080" y="-3250" width="110" height="40" as="geometry" />
        </mxCell>
        <mxCell id="WgCXtVQOdJW3vV8rvmdJ-875" value="" style="whiteSpace=wrap;html=1;aspect=fixed;" parent="1" vertex="1">
          <mxGeometry x="-2040" y="-3250" width="110" height="40" as="geometry" />
        </mxCell>
        <mxCell id="WgCXtVQOdJW3vV8rvmdJ-876" value="" style="whiteSpace=wrap;html=1;aspect=fixed;" parent="1" vertex="1">
          <mxGeometry x="-1960" y="-3250" width="110" height="40" as="geometry" />
        </mxCell>
        <mxCell id="WgCXtVQOdJW3vV8rvmdJ-877" value="" style="rounded=0;whiteSpace=wrap;html=1;" parent="1" vertex="1">
          <mxGeometry x="-2130" y="-3160" width="290" height="60" as="geometry" />
        </mxCell>
        <mxCell id="WgCXtVQOdJW3vV8rvmdJ-878" value="" style="endArrow=none;dashed=1;html=1;dashPattern=1 3;strokeWidth=3;rounded=0;exitX=1;exitY=0.5;exitDx=0;exitDy=0;entryX=0;entryY=0.5;entryDx=0;entryDy=0;" parent="1" edge="1">
          <mxGeometry width="50" height="50" relative="1" as="geometry">
            <mxPoint x="-2007" y="-3128" as="sourcePoint" />
            <mxPoint x="-1967" y="-3128" as="targetPoint" />
          </mxGeometry>
        </mxCell>
        <mxCell id="WgCXtVQOdJW3vV8rvmdJ-879" value="" style="whiteSpace=wrap;html=1;aspect=fixed;" parent="1" vertex="1">
          <mxGeometry x="-2120" y="-3150" width="110" height="40" as="geometry" />
        </mxCell>
        <mxCell id="WgCXtVQOdJW3vV8rvmdJ-880" value="" style="whiteSpace=wrap;html=1;aspect=fixed;" parent="1" vertex="1">
          <mxGeometry x="-2080" y="-3150" width="110" height="40" as="geometry" />
        </mxCell>
        <mxCell id="WgCXtVQOdJW3vV8rvmdJ-881" value="" style="whiteSpace=wrap;html=1;aspect=fixed;" parent="1" vertex="1">
          <mxGeometry x="-2040" y="-3150" width="110" height="40" as="geometry" />
        </mxCell>
        <mxCell id="WgCXtVQOdJW3vV8rvmdJ-882" value="" style="whiteSpace=wrap;html=1;aspect=fixed;" parent="1" vertex="1">
          <mxGeometry x="-1960" y="-3150" width="110" height="40" as="geometry" />
        </mxCell>
        <mxCell id="WgCXtVQOdJW3vV8rvmdJ-883" value="" style="endArrow=none;dashed=1;html=1;dashPattern=1 3;strokeWidth=5;rounded=0;" parent="1" edge="1">
          <mxGeometry width="50" height="50" relative="1" as="geometry">
            <mxPoint x="-1614" y="-3078" as="sourcePoint" />
            <mxPoint x="-1554" y="-3078" as="targetPoint" />
          </mxGeometry>
        </mxCell>
        <mxCell id="WgCXtVQOdJW3vV8rvmdJ-884" value="" style="endArrow=none;dashed=1;html=1;dashPattern=1 3;strokeWidth=5;rounded=0;" parent="1" edge="1">
          <mxGeometry width="50" height="50" relative="1" as="geometry">
            <mxPoint x="-1614" y="-2513" as="sourcePoint" />
            <mxPoint x="-1554" y="-2513" as="targetPoint" />
          </mxGeometry>
        </mxCell>
        <mxCell id="WgCXtVQOdJW3vV8rvmdJ-885" value="" style="endArrow=none;dashed=1;html=1;dashPattern=1 3;strokeWidth=5;rounded=0;" parent="1" edge="1">
          <mxGeometry width="50" height="50" relative="1" as="geometry">
            <mxPoint x="-1421" y="-2741" as="sourcePoint" />
            <mxPoint x="-1421" y="-2681" as="targetPoint" />
          </mxGeometry>
        </mxCell>
        <mxCell id="WgCXtVQOdJW3vV8rvmdJ-886" value="" style="endArrow=none;dashed=1;html=1;dashPattern=1 3;strokeWidth=5;rounded=0;" parent="1" edge="1">
          <mxGeometry width="50" height="50" relative="1" as="geometry">
            <mxPoint x="-1892" y="-2741" as="sourcePoint" />
            <mxPoint x="-1892" y="-2681" as="targetPoint" />
          </mxGeometry>
        </mxCell>
        <mxCell id="WgCXtVQOdJW3vV8rvmdJ-888" value="" style="rounded=0;whiteSpace=wrap;html=1;" parent="1" vertex="1">
          <mxGeometry x="-1880" y="-3390" width="310" height="300" as="geometry" />
        </mxCell>
        <mxCell id="WgCXtVQOdJW3vV8rvmdJ-889" value="" style="endArrow=none;dashed=1;html=1;dashPattern=1 3;strokeWidth=3;rounded=0;entryX=0.5;entryY=1;entryDx=0;entryDy=0;exitX=0.5;exitY=0;exitDx=0;exitDy=0;" parent="1" edge="1">
          <mxGeometry width="50" height="50" relative="1" as="geometry">
            <mxPoint x="-1761" y="-3164" as="sourcePoint" />
            <mxPoint x="-1761" y="-3204" as="targetPoint" />
          </mxGeometry>
        </mxCell>
        <mxCell id="WgCXtVQOdJW3vV8rvmdJ-890" value="" style="rounded=0;whiteSpace=wrap;html=1;" parent="1" vertex="1">
          <mxGeometry x="-1870" y="-3380" width="290" height="60" as="geometry" />
        </mxCell>
        <mxCell id="WgCXtVQOdJW3vV8rvmdJ-891" value="" style="endArrow=none;dashed=1;html=1;dashPattern=1 3;strokeWidth=3;rounded=0;exitX=1;exitY=0.5;exitDx=0;exitDy=0;entryX=0;entryY=0.5;entryDx=0;entryDy=0;" parent="1" edge="1">
          <mxGeometry width="50" height="50" relative="1" as="geometry">
            <mxPoint x="-1747" y="-3348" as="sourcePoint" />
            <mxPoint x="-1707" y="-3348" as="targetPoint" />
          </mxGeometry>
        </mxCell>
        <mxCell id="WgCXtVQOdJW3vV8rvmdJ-892" value="" style="whiteSpace=wrap;html=1;aspect=fixed;" parent="1" vertex="1">
          <mxGeometry x="-1860" y="-3370" width="110" height="40" as="geometry" />
        </mxCell>
        <mxCell id="WgCXtVQOdJW3vV8rvmdJ-893" value="" style="whiteSpace=wrap;html=1;aspect=fixed;" parent="1" vertex="1">
          <mxGeometry x="-1820" y="-3370" width="110" height="40" as="geometry" />
        </mxCell>
        <mxCell id="WgCXtVQOdJW3vV8rvmdJ-894" value="" style="whiteSpace=wrap;html=1;aspect=fixed;" parent="1" vertex="1">
          <mxGeometry x="-1780" y="-3370" width="110" height="40" as="geometry" />
        </mxCell>
        <mxCell id="WgCXtVQOdJW3vV8rvmdJ-895" value="" style="whiteSpace=wrap;html=1;aspect=fixed;" parent="1" vertex="1">
          <mxGeometry x="-1700" y="-3370" width="110" height="40" as="geometry" />
        </mxCell>
        <mxCell id="WgCXtVQOdJW3vV8rvmdJ-896" value="" style="rounded=0;whiteSpace=wrap;html=1;" parent="1" vertex="1">
          <mxGeometry x="-1870" y="-3320" width="290" height="60" as="geometry" />
        </mxCell>
        <mxCell id="WgCXtVQOdJW3vV8rvmdJ-897" value="" style="endArrow=none;dashed=1;html=1;dashPattern=1 3;strokeWidth=3;rounded=0;exitX=1;exitY=0.5;exitDx=0;exitDy=0;entryX=0;entryY=0.5;entryDx=0;entryDy=0;" parent="1" edge="1">
          <mxGeometry width="50" height="50" relative="1" as="geometry">
            <mxPoint x="-1747" y="-3288" as="sourcePoint" />
            <mxPoint x="-1707" y="-3288" as="targetPoint" />
          </mxGeometry>
        </mxCell>
        <mxCell id="WgCXtVQOdJW3vV8rvmdJ-898" value="" style="whiteSpace=wrap;html=1;aspect=fixed;" parent="1" vertex="1">
          <mxGeometry x="-1860" y="-3310" width="110" height="40" as="geometry" />
        </mxCell>
        <mxCell id="WgCXtVQOdJW3vV8rvmdJ-899" value="" style="whiteSpace=wrap;html=1;aspect=fixed;" parent="1" vertex="1">
          <mxGeometry x="-1820" y="-3310" width="110" height="40" as="geometry" />
        </mxCell>
        <mxCell id="WgCXtVQOdJW3vV8rvmdJ-900" value="" style="whiteSpace=wrap;html=1;aspect=fixed;" parent="1" vertex="1">
          <mxGeometry x="-1780" y="-3310" width="110" height="40" as="geometry" />
        </mxCell>
        <mxCell id="WgCXtVQOdJW3vV8rvmdJ-901" value="" style="whiteSpace=wrap;html=1;aspect=fixed;" parent="1" vertex="1">
          <mxGeometry x="-1700" y="-3310" width="110" height="40" as="geometry" />
        </mxCell>
        <mxCell id="WgCXtVQOdJW3vV8rvmdJ-902" value="" style="rounded=0;whiteSpace=wrap;html=1;" parent="1" vertex="1">
          <mxGeometry x="-1870" y="-3260" width="290" height="60" as="geometry" />
        </mxCell>
        <mxCell id="WgCXtVQOdJW3vV8rvmdJ-903" value="" style="endArrow=none;dashed=1;html=1;dashPattern=1 3;strokeWidth=3;rounded=0;exitX=1;exitY=0.5;exitDx=0;exitDy=0;entryX=0;entryY=0.5;entryDx=0;entryDy=0;" parent="1" edge="1">
          <mxGeometry width="50" height="50" relative="1" as="geometry">
            <mxPoint x="-1747" y="-3228" as="sourcePoint" />
            <mxPoint x="-1707" y="-3228" as="targetPoint" />
          </mxGeometry>
        </mxCell>
        <mxCell id="WgCXtVQOdJW3vV8rvmdJ-904" value="" style="whiteSpace=wrap;html=1;aspect=fixed;" parent="1" vertex="1">
          <mxGeometry x="-1860" y="-3250" width="110" height="40" as="geometry" />
        </mxCell>
        <mxCell id="WgCXtVQOdJW3vV8rvmdJ-905" value="" style="whiteSpace=wrap;html=1;aspect=fixed;" parent="1" vertex="1">
          <mxGeometry x="-1820" y="-3250" width="110" height="40" as="geometry" />
        </mxCell>
        <mxCell id="WgCXtVQOdJW3vV8rvmdJ-906" value="" style="whiteSpace=wrap;html=1;aspect=fixed;" parent="1" vertex="1">
          <mxGeometry x="-1780" y="-3250" width="110" height="40" as="geometry" />
        </mxCell>
        <mxCell id="WgCXtVQOdJW3vV8rvmdJ-907" value="" style="whiteSpace=wrap;html=1;aspect=fixed;" parent="1" vertex="1">
          <mxGeometry x="-1700" y="-3250" width="110" height="40" as="geometry" />
        </mxCell>
        <mxCell id="WgCXtVQOdJW3vV8rvmdJ-908" value="" style="rounded=0;whiteSpace=wrap;html=1;" parent="1" vertex="1">
          <mxGeometry x="-1870" y="-3160" width="290" height="60" as="geometry" />
        </mxCell>
        <mxCell id="WgCXtVQOdJW3vV8rvmdJ-909" value="" style="endArrow=none;dashed=1;html=1;dashPattern=1 3;strokeWidth=3;rounded=0;exitX=1;exitY=0.5;exitDx=0;exitDy=0;entryX=0;entryY=0.5;entryDx=0;entryDy=0;" parent="1" edge="1">
          <mxGeometry width="50" height="50" relative="1" as="geometry">
            <mxPoint x="-1747" y="-3128" as="sourcePoint" />
            <mxPoint x="-1707" y="-3128" as="targetPoint" />
          </mxGeometry>
        </mxCell>
        <mxCell id="WgCXtVQOdJW3vV8rvmdJ-910" value="" style="whiteSpace=wrap;html=1;aspect=fixed;" parent="1" vertex="1">
          <mxGeometry x="-1860" y="-3150" width="110" height="40" as="geometry" />
        </mxCell>
        <mxCell id="WgCXtVQOdJW3vV8rvmdJ-911" value="" style="whiteSpace=wrap;html=1;aspect=fixed;" parent="1" vertex="1">
          <mxGeometry x="-1820" y="-3150" width="110" height="40" as="geometry" />
        </mxCell>
        <mxCell id="WgCXtVQOdJW3vV8rvmdJ-912" value="" style="whiteSpace=wrap;html=1;aspect=fixed;" parent="1" vertex="1">
          <mxGeometry x="-1780" y="-3150" width="110" height="40" as="geometry" />
        </mxCell>
        <mxCell id="WgCXtVQOdJW3vV8rvmdJ-913" value="" style="whiteSpace=wrap;html=1;aspect=fixed;" parent="1" vertex="1">
          <mxGeometry x="-1700" y="-3150" width="110" height="40" as="geometry" />
        </mxCell>
        <mxCell id="WgCXtVQOdJW3vV8rvmdJ-914" value="" style="rounded=0;whiteSpace=wrap;html=1;" parent="1" vertex="1">
          <mxGeometry x="-2140" y="-3070" width="310" height="300" as="geometry" />
        </mxCell>
        <mxCell id="WgCXtVQOdJW3vV8rvmdJ-915" value="" style="endArrow=none;dashed=1;html=1;dashPattern=1 3;strokeWidth=3;rounded=0;entryX=0.5;entryY=1;entryDx=0;entryDy=0;exitX=0.5;exitY=0;exitDx=0;exitDy=0;" parent="1" edge="1">
          <mxGeometry width="50" height="50" relative="1" as="geometry">
            <mxPoint x="-2021" y="-2844" as="sourcePoint" />
            <mxPoint x="-2021" y="-2884" as="targetPoint" />
          </mxGeometry>
        </mxCell>
        <mxCell id="WgCXtVQOdJW3vV8rvmdJ-916" value="" style="rounded=0;whiteSpace=wrap;html=1;" parent="1" vertex="1">
          <mxGeometry x="-2130" y="-3060" width="290" height="60" as="geometry" />
        </mxCell>
        <mxCell id="WgCXtVQOdJW3vV8rvmdJ-917" value="" style="endArrow=none;dashed=1;html=1;dashPattern=1 3;strokeWidth=3;rounded=0;exitX=1;exitY=0.5;exitDx=0;exitDy=0;entryX=0;entryY=0.5;entryDx=0;entryDy=0;" parent="1" edge="1">
          <mxGeometry width="50" height="50" relative="1" as="geometry">
            <mxPoint x="-2007" y="-3028" as="sourcePoint" />
            <mxPoint x="-1967" y="-3028" as="targetPoint" />
          </mxGeometry>
        </mxCell>
        <mxCell id="WgCXtVQOdJW3vV8rvmdJ-918" value="" style="whiteSpace=wrap;html=1;aspect=fixed;" parent="1" vertex="1">
          <mxGeometry x="-2120" y="-3050" width="110" height="40" as="geometry" />
        </mxCell>
        <mxCell id="WgCXtVQOdJW3vV8rvmdJ-919" value="" style="whiteSpace=wrap;html=1;aspect=fixed;" parent="1" vertex="1">
          <mxGeometry x="-2080" y="-3050" width="110" height="40" as="geometry" />
        </mxCell>
        <mxCell id="WgCXtVQOdJW3vV8rvmdJ-920" value="" style="whiteSpace=wrap;html=1;aspect=fixed;" parent="1" vertex="1">
          <mxGeometry x="-2040" y="-3050" width="110" height="40" as="geometry" />
        </mxCell>
        <mxCell id="WgCXtVQOdJW3vV8rvmdJ-921" value="" style="whiteSpace=wrap;html=1;aspect=fixed;" parent="1" vertex="1">
          <mxGeometry x="-1960" y="-3050" width="110" height="40" as="geometry" />
        </mxCell>
        <mxCell id="WgCXtVQOdJW3vV8rvmdJ-922" value="" style="rounded=0;whiteSpace=wrap;html=1;" parent="1" vertex="1">
          <mxGeometry x="-2130" y="-3000" width="290" height="60" as="geometry" />
        </mxCell>
        <mxCell id="WgCXtVQOdJW3vV8rvmdJ-923" value="" style="endArrow=none;dashed=1;html=1;dashPattern=1 3;strokeWidth=3;rounded=0;exitX=1;exitY=0.5;exitDx=0;exitDy=0;entryX=0;entryY=0.5;entryDx=0;entryDy=0;" parent="1" edge="1">
          <mxGeometry width="50" height="50" relative="1" as="geometry">
            <mxPoint x="-2007" y="-2968" as="sourcePoint" />
            <mxPoint x="-1967" y="-2968" as="targetPoint" />
          </mxGeometry>
        </mxCell>
        <mxCell id="WgCXtVQOdJW3vV8rvmdJ-924" value="" style="whiteSpace=wrap;html=1;aspect=fixed;" parent="1" vertex="1">
          <mxGeometry x="-2120" y="-2990" width="110" height="40" as="geometry" />
        </mxCell>
        <mxCell id="WgCXtVQOdJW3vV8rvmdJ-925" value="" style="whiteSpace=wrap;html=1;aspect=fixed;" parent="1" vertex="1">
          <mxGeometry x="-2080" y="-2990" width="110" height="40" as="geometry" />
        </mxCell>
        <mxCell id="WgCXtVQOdJW3vV8rvmdJ-926" value="" style="whiteSpace=wrap;html=1;aspect=fixed;" parent="1" vertex="1">
          <mxGeometry x="-2040" y="-2990" width="110" height="40" as="geometry" />
        </mxCell>
        <mxCell id="WgCXtVQOdJW3vV8rvmdJ-927" value="" style="whiteSpace=wrap;html=1;aspect=fixed;" parent="1" vertex="1">
          <mxGeometry x="-1960" y="-2990" width="110" height="40" as="geometry" />
        </mxCell>
        <mxCell id="WgCXtVQOdJW3vV8rvmdJ-928" value="" style="rounded=0;whiteSpace=wrap;html=1;" parent="1" vertex="1">
          <mxGeometry x="-2130" y="-2940" width="290" height="60" as="geometry" />
        </mxCell>
        <mxCell id="WgCXtVQOdJW3vV8rvmdJ-929" value="" style="endArrow=none;dashed=1;html=1;dashPattern=1 3;strokeWidth=3;rounded=0;exitX=1;exitY=0.5;exitDx=0;exitDy=0;entryX=0;entryY=0.5;entryDx=0;entryDy=0;" parent="1" edge="1">
          <mxGeometry width="50" height="50" relative="1" as="geometry">
            <mxPoint x="-2007" y="-2908" as="sourcePoint" />
            <mxPoint x="-1967" y="-2908" as="targetPoint" />
          </mxGeometry>
        </mxCell>
        <mxCell id="WgCXtVQOdJW3vV8rvmdJ-930" value="" style="whiteSpace=wrap;html=1;aspect=fixed;" parent="1" vertex="1">
          <mxGeometry x="-2120" y="-2930" width="110" height="40" as="geometry" />
        </mxCell>
        <mxCell id="WgCXtVQOdJW3vV8rvmdJ-931" value="" style="whiteSpace=wrap;html=1;aspect=fixed;" parent="1" vertex="1">
          <mxGeometry x="-2080" y="-2930" width="110" height="40" as="geometry" />
        </mxCell>
        <mxCell id="WgCXtVQOdJW3vV8rvmdJ-932" value="" style="whiteSpace=wrap;html=1;aspect=fixed;" parent="1" vertex="1">
          <mxGeometry x="-2040" y="-2930" width="110" height="40" as="geometry" />
        </mxCell>
        <mxCell id="WgCXtVQOdJW3vV8rvmdJ-933" value="" style="whiteSpace=wrap;html=1;aspect=fixed;" parent="1" vertex="1">
          <mxGeometry x="-1960" y="-2930" width="110" height="40" as="geometry" />
        </mxCell>
        <mxCell id="WgCXtVQOdJW3vV8rvmdJ-934" value="" style="rounded=0;whiteSpace=wrap;html=1;" parent="1" vertex="1">
          <mxGeometry x="-2130" y="-2840" width="290" height="60" as="geometry" />
        </mxCell>
        <mxCell id="WgCXtVQOdJW3vV8rvmdJ-935" value="" style="endArrow=none;dashed=1;html=1;dashPattern=1 3;strokeWidth=3;rounded=0;exitX=1;exitY=0.5;exitDx=0;exitDy=0;entryX=0;entryY=0.5;entryDx=0;entryDy=0;" parent="1" edge="1">
          <mxGeometry width="50" height="50" relative="1" as="geometry">
            <mxPoint x="-2007" y="-2808" as="sourcePoint" />
            <mxPoint x="-1967" y="-2808" as="targetPoint" />
          </mxGeometry>
        </mxCell>
        <mxCell id="WgCXtVQOdJW3vV8rvmdJ-936" value="" style="whiteSpace=wrap;html=1;aspect=fixed;" parent="1" vertex="1">
          <mxGeometry x="-2120" y="-2830" width="110" height="40" as="geometry" />
        </mxCell>
        <mxCell id="WgCXtVQOdJW3vV8rvmdJ-937" value="" style="whiteSpace=wrap;html=1;aspect=fixed;" parent="1" vertex="1">
          <mxGeometry x="-2080" y="-2830" width="110" height="40" as="geometry" />
        </mxCell>
        <mxCell id="WgCXtVQOdJW3vV8rvmdJ-938" value="" style="whiteSpace=wrap;html=1;aspect=fixed;" parent="1" vertex="1">
          <mxGeometry x="-2040" y="-2830" width="110" height="40" as="geometry" />
        </mxCell>
        <mxCell id="WgCXtVQOdJW3vV8rvmdJ-939" value="" style="whiteSpace=wrap;html=1;aspect=fixed;" parent="1" vertex="1">
          <mxGeometry x="-1960" y="-2830" width="110" height="40" as="geometry" />
        </mxCell>
        <mxCell id="WgCXtVQOdJW3vV8rvmdJ-940" value="" style="rounded=0;whiteSpace=wrap;html=1;" parent="1" vertex="1">
          <mxGeometry x="-1880" y="-3070" width="310" height="300" as="geometry" />
        </mxCell>
        <mxCell id="WgCXtVQOdJW3vV8rvmdJ-941" value="" style="endArrow=none;dashed=1;html=1;dashPattern=1 3;strokeWidth=3;rounded=0;entryX=0.5;entryY=1;entryDx=0;entryDy=0;exitX=0.5;exitY=0;exitDx=0;exitDy=0;" parent="1" edge="1">
          <mxGeometry width="50" height="50" relative="1" as="geometry">
            <mxPoint x="-1761" y="-2844" as="sourcePoint" />
            <mxPoint x="-1761" y="-2884" as="targetPoint" />
          </mxGeometry>
        </mxCell>
        <mxCell id="WgCXtVQOdJW3vV8rvmdJ-942" value="" style="rounded=0;whiteSpace=wrap;html=1;" parent="1" vertex="1">
          <mxGeometry x="-1870" y="-3060" width="290" height="60" as="geometry" />
        </mxCell>
        <mxCell id="WgCXtVQOdJW3vV8rvmdJ-943" value="" style="endArrow=none;dashed=1;html=1;dashPattern=1 3;strokeWidth=3;rounded=0;exitX=1;exitY=0.5;exitDx=0;exitDy=0;entryX=0;entryY=0.5;entryDx=0;entryDy=0;" parent="1" edge="1">
          <mxGeometry width="50" height="50" relative="1" as="geometry">
            <mxPoint x="-1747" y="-3028" as="sourcePoint" />
            <mxPoint x="-1707" y="-3028" as="targetPoint" />
          </mxGeometry>
        </mxCell>
        <mxCell id="WgCXtVQOdJW3vV8rvmdJ-944" value="" style="whiteSpace=wrap;html=1;aspect=fixed;" parent="1" vertex="1">
          <mxGeometry x="-1860" y="-3050" width="110" height="40" as="geometry" />
        </mxCell>
        <mxCell id="WgCXtVQOdJW3vV8rvmdJ-945" value="" style="whiteSpace=wrap;html=1;aspect=fixed;" parent="1" vertex="1">
          <mxGeometry x="-1820" y="-3050" width="110" height="40" as="geometry" />
        </mxCell>
        <mxCell id="WgCXtVQOdJW3vV8rvmdJ-946" value="" style="whiteSpace=wrap;html=1;aspect=fixed;" parent="1" vertex="1">
          <mxGeometry x="-1780" y="-3050" width="110" height="40" as="geometry" />
        </mxCell>
        <mxCell id="WgCXtVQOdJW3vV8rvmdJ-947" value="" style="whiteSpace=wrap;html=1;aspect=fixed;" parent="1" vertex="1">
          <mxGeometry x="-1700" y="-3050" width="110" height="40" as="geometry" />
        </mxCell>
        <mxCell id="WgCXtVQOdJW3vV8rvmdJ-948" value="" style="rounded=0;whiteSpace=wrap;html=1;" parent="1" vertex="1">
          <mxGeometry x="-1870" y="-3000" width="290" height="60" as="geometry" />
        </mxCell>
        <mxCell id="WgCXtVQOdJW3vV8rvmdJ-949" value="" style="endArrow=none;dashed=1;html=1;dashPattern=1 3;strokeWidth=3;rounded=0;exitX=1;exitY=0.5;exitDx=0;exitDy=0;entryX=0;entryY=0.5;entryDx=0;entryDy=0;" parent="1" edge="1">
          <mxGeometry width="50" height="50" relative="1" as="geometry">
            <mxPoint x="-1747" y="-2968" as="sourcePoint" />
            <mxPoint x="-1707" y="-2968" as="targetPoint" />
          </mxGeometry>
        </mxCell>
        <mxCell id="WgCXtVQOdJW3vV8rvmdJ-950" value="" style="whiteSpace=wrap;html=1;aspect=fixed;" parent="1" vertex="1">
          <mxGeometry x="-1860" y="-2990" width="110" height="40" as="geometry" />
        </mxCell>
        <mxCell id="WgCXtVQOdJW3vV8rvmdJ-951" value="" style="whiteSpace=wrap;html=1;aspect=fixed;" parent="1" vertex="1">
          <mxGeometry x="-1820" y="-2990" width="110" height="40" as="geometry" />
        </mxCell>
        <mxCell id="WgCXtVQOdJW3vV8rvmdJ-952" value="" style="whiteSpace=wrap;html=1;aspect=fixed;" parent="1" vertex="1">
          <mxGeometry x="-1780" y="-2990" width="110" height="40" as="geometry" />
        </mxCell>
        <mxCell id="WgCXtVQOdJW3vV8rvmdJ-953" value="" style="whiteSpace=wrap;html=1;aspect=fixed;" parent="1" vertex="1">
          <mxGeometry x="-1700" y="-2990" width="110" height="40" as="geometry" />
        </mxCell>
        <mxCell id="WgCXtVQOdJW3vV8rvmdJ-954" value="" style="rounded=0;whiteSpace=wrap;html=1;" parent="1" vertex="1">
          <mxGeometry x="-1870" y="-2940" width="290" height="60" as="geometry" />
        </mxCell>
        <mxCell id="WgCXtVQOdJW3vV8rvmdJ-955" value="" style="endArrow=none;dashed=1;html=1;dashPattern=1 3;strokeWidth=3;rounded=0;exitX=1;exitY=0.5;exitDx=0;exitDy=0;entryX=0;entryY=0.5;entryDx=0;entryDy=0;" parent="1" edge="1">
          <mxGeometry width="50" height="50" relative="1" as="geometry">
            <mxPoint x="-1747" y="-2908" as="sourcePoint" />
            <mxPoint x="-1707" y="-2908" as="targetPoint" />
          </mxGeometry>
        </mxCell>
        <mxCell id="WgCXtVQOdJW3vV8rvmdJ-956" value="" style="whiteSpace=wrap;html=1;aspect=fixed;" parent="1" vertex="1">
          <mxGeometry x="-1860" y="-2930" width="110" height="40" as="geometry" />
        </mxCell>
        <mxCell id="WgCXtVQOdJW3vV8rvmdJ-957" value="" style="whiteSpace=wrap;html=1;aspect=fixed;" parent="1" vertex="1">
          <mxGeometry x="-1820" y="-2930" width="110" height="40" as="geometry" />
        </mxCell>
        <mxCell id="WgCXtVQOdJW3vV8rvmdJ-958" value="" style="whiteSpace=wrap;html=1;aspect=fixed;" parent="1" vertex="1">
          <mxGeometry x="-1780" y="-2930" width="110" height="40" as="geometry" />
        </mxCell>
        <mxCell id="WgCXtVQOdJW3vV8rvmdJ-959" value="" style="whiteSpace=wrap;html=1;aspect=fixed;" parent="1" vertex="1">
          <mxGeometry x="-1700" y="-2930" width="110" height="40" as="geometry" />
        </mxCell>
        <mxCell id="WgCXtVQOdJW3vV8rvmdJ-960" value="" style="rounded=0;whiteSpace=wrap;html=1;" parent="1" vertex="1">
          <mxGeometry x="-1870" y="-2840" width="290" height="60" as="geometry" />
        </mxCell>
        <mxCell id="WgCXtVQOdJW3vV8rvmdJ-961" value="" style="endArrow=none;dashed=1;html=1;dashPattern=1 3;strokeWidth=3;rounded=0;exitX=1;exitY=0.5;exitDx=0;exitDy=0;entryX=0;entryY=0.5;entryDx=0;entryDy=0;" parent="1" edge="1">
          <mxGeometry width="50" height="50" relative="1" as="geometry">
            <mxPoint x="-1747" y="-2808" as="sourcePoint" />
            <mxPoint x="-1707" y="-2808" as="targetPoint" />
          </mxGeometry>
        </mxCell>
        <mxCell id="WgCXtVQOdJW3vV8rvmdJ-962" value="" style="whiteSpace=wrap;html=1;aspect=fixed;" parent="1" vertex="1">
          <mxGeometry x="-1860" y="-2830" width="110" height="40" as="geometry" />
        </mxCell>
        <mxCell id="WgCXtVQOdJW3vV8rvmdJ-963" value="" style="whiteSpace=wrap;html=1;aspect=fixed;" parent="1" vertex="1">
          <mxGeometry x="-1820" y="-2830" width="110" height="40" as="geometry" />
        </mxCell>
        <mxCell id="WgCXtVQOdJW3vV8rvmdJ-964" value="" style="whiteSpace=wrap;html=1;aspect=fixed;" parent="1" vertex="1">
          <mxGeometry x="-1780" y="-2830" width="110" height="40" as="geometry" />
        </mxCell>
        <mxCell id="WgCXtVQOdJW3vV8rvmdJ-965" value="" style="whiteSpace=wrap;html=1;aspect=fixed;" parent="1" vertex="1">
          <mxGeometry x="-1700" y="-2830" width="110" height="40" as="geometry" />
        </mxCell>
        <mxCell id="WgCXtVQOdJW3vV8rvmdJ-967" value="" style="endArrow=none;dashed=1;html=1;dashPattern=1 3;strokeWidth=3;rounded=0;entryX=0.5;entryY=1;entryDx=0;entryDy=0;exitX=0.5;exitY=0;exitDx=0;exitDy=0;" parent="1" edge="1">
          <mxGeometry width="50" height="50" relative="1" as="geometry">
            <mxPoint x="-1421" y="-3164" as="sourcePoint" />
            <mxPoint x="-1421" y="-3204" as="targetPoint" />
          </mxGeometry>
        </mxCell>
        <mxCell id="WgCXtVQOdJW3vV8rvmdJ-969" value="" style="endArrow=none;dashed=1;html=1;dashPattern=1 3;strokeWidth=3;rounded=0;exitX=1;exitY=0.5;exitDx=0;exitDy=0;entryX=0;entryY=0.5;entryDx=0;entryDy=0;" parent="1" edge="1">
          <mxGeometry width="50" height="50" relative="1" as="geometry">
            <mxPoint x="-1407" y="-3348" as="sourcePoint" />
            <mxPoint x="-1367" y="-3348" as="targetPoint" />
          </mxGeometry>
        </mxCell>
        <mxCell id="WgCXtVQOdJW3vV8rvmdJ-970" value="" style="whiteSpace=wrap;html=1;aspect=fixed;" parent="1" vertex="1">
          <mxGeometry x="-1520" y="-3370" width="110" height="40" as="geometry" />
        </mxCell>
        <mxCell id="WgCXtVQOdJW3vV8rvmdJ-971" value="" style="whiteSpace=wrap;html=1;aspect=fixed;" parent="1" vertex="1">
          <mxGeometry x="-1480" y="-3370" width="110" height="40" as="geometry" />
        </mxCell>
        <mxCell id="WgCXtVQOdJW3vV8rvmdJ-972" value="" style="whiteSpace=wrap;html=1;aspect=fixed;" parent="1" vertex="1">
          <mxGeometry x="-1440" y="-3370" width="110" height="40" as="geometry" />
        </mxCell>
        <mxCell id="WgCXtVQOdJW3vV8rvmdJ-975" value="" style="endArrow=none;dashed=1;html=1;dashPattern=1 3;strokeWidth=3;rounded=0;exitX=1;exitY=0.5;exitDx=0;exitDy=0;entryX=0;entryY=0.5;entryDx=0;entryDy=0;" parent="1" edge="1">
          <mxGeometry width="50" height="50" relative="1" as="geometry">
            <mxPoint x="-1407" y="-3288" as="sourcePoint" />
            <mxPoint x="-1367" y="-3288" as="targetPoint" />
          </mxGeometry>
        </mxCell>
        <mxCell id="WgCXtVQOdJW3vV8rvmdJ-976" value="" style="whiteSpace=wrap;html=1;aspect=fixed;" parent="1" vertex="1">
          <mxGeometry x="-1520" y="-3310" width="110" height="40" as="geometry" />
        </mxCell>
        <mxCell id="WgCXtVQOdJW3vV8rvmdJ-977" value="" style="whiteSpace=wrap;html=1;aspect=fixed;" parent="1" vertex="1">
          <mxGeometry x="-1480" y="-3310" width="110" height="40" as="geometry" />
        </mxCell>
        <mxCell id="WgCXtVQOdJW3vV8rvmdJ-978" value="" style="whiteSpace=wrap;html=1;aspect=fixed;" parent="1" vertex="1">
          <mxGeometry x="-1440" y="-3310" width="110" height="40" as="geometry" />
        </mxCell>
        <mxCell id="WgCXtVQOdJW3vV8rvmdJ-981" value="" style="endArrow=none;dashed=1;html=1;dashPattern=1 3;strokeWidth=3;rounded=0;exitX=1;exitY=0.5;exitDx=0;exitDy=0;entryX=0;entryY=0.5;entryDx=0;entryDy=0;" parent="1" edge="1">
          <mxGeometry width="50" height="50" relative="1" as="geometry">
            <mxPoint x="-1407" y="-3228" as="sourcePoint" />
            <mxPoint x="-1367" y="-3228" as="targetPoint" />
          </mxGeometry>
        </mxCell>
        <mxCell id="WgCXtVQOdJW3vV8rvmdJ-982" value="" style="whiteSpace=wrap;html=1;aspect=fixed;" parent="1" vertex="1">
          <mxGeometry x="-1520" y="-3250" width="110" height="40" as="geometry" />
        </mxCell>
        <mxCell id="WgCXtVQOdJW3vV8rvmdJ-983" value="" style="whiteSpace=wrap;html=1;aspect=fixed;" parent="1" vertex="1">
          <mxGeometry x="-1480" y="-3250" width="110" height="40" as="geometry" />
        </mxCell>
        <mxCell id="WgCXtVQOdJW3vV8rvmdJ-984" value="" style="whiteSpace=wrap;html=1;aspect=fixed;" parent="1" vertex="1">
          <mxGeometry x="-1440" y="-3250" width="110" height="40" as="geometry" />
        </mxCell>
        <mxCell id="WgCXtVQOdJW3vV8rvmdJ-987" value="" style="endArrow=none;dashed=1;html=1;dashPattern=1 3;strokeWidth=3;rounded=0;exitX=1;exitY=0.5;exitDx=0;exitDy=0;entryX=0;entryY=0.5;entryDx=0;entryDy=0;" parent="1" edge="1">
          <mxGeometry width="50" height="50" relative="1" as="geometry">
            <mxPoint x="-1407" y="-3128" as="sourcePoint" />
            <mxPoint x="-1367" y="-3128" as="targetPoint" />
          </mxGeometry>
        </mxCell>
        <mxCell id="WgCXtVQOdJW3vV8rvmdJ-988" value="" style="whiteSpace=wrap;html=1;aspect=fixed;" parent="1" vertex="1">
          <mxGeometry x="-1520" y="-3150" width="110" height="40" as="geometry" />
        </mxCell>
        <mxCell id="WgCXtVQOdJW3vV8rvmdJ-989" value="" style="whiteSpace=wrap;html=1;aspect=fixed;" parent="1" vertex="1">
          <mxGeometry x="-1480" y="-3150" width="110" height="40" as="geometry" />
        </mxCell>
        <mxCell id="WgCXtVQOdJW3vV8rvmdJ-990" value="" style="whiteSpace=wrap;html=1;aspect=fixed;" parent="1" vertex="1">
          <mxGeometry x="-1440" y="-3150" width="110" height="40" as="geometry" />
        </mxCell>
        <mxCell id="WgCXtVQOdJW3vV8rvmdJ-993" value="" style="endArrow=none;dashed=1;html=1;dashPattern=1 3;strokeWidth=3;rounded=0;entryX=0.5;entryY=1;entryDx=0;entryDy=0;exitX=0.5;exitY=0;exitDx=0;exitDy=0;" parent="1" edge="1">
          <mxGeometry width="50" height="50" relative="1" as="geometry">
            <mxPoint x="-1421" y="-2844" as="sourcePoint" />
            <mxPoint x="-1421" y="-2884" as="targetPoint" />
          </mxGeometry>
        </mxCell>
        <mxCell id="WgCXtVQOdJW3vV8rvmdJ-995" value="" style="endArrow=none;dashed=1;html=1;dashPattern=1 3;strokeWidth=3;rounded=0;exitX=1;exitY=0.5;exitDx=0;exitDy=0;entryX=0;entryY=0.5;entryDx=0;entryDy=0;" parent="1" edge="1">
          <mxGeometry width="50" height="50" relative="1" as="geometry">
            <mxPoint x="-1407" y="-3028" as="sourcePoint" />
            <mxPoint x="-1367" y="-3028" as="targetPoint" />
          </mxGeometry>
        </mxCell>
        <mxCell id="WgCXtVQOdJW3vV8rvmdJ-996" value="" style="whiteSpace=wrap;html=1;aspect=fixed;" parent="1" vertex="1">
          <mxGeometry x="-1520" y="-3050" width="110" height="40" as="geometry" />
        </mxCell>
        <mxCell id="WgCXtVQOdJW3vV8rvmdJ-997" value="" style="whiteSpace=wrap;html=1;aspect=fixed;" parent="1" vertex="1">
          <mxGeometry x="-1480" y="-3050" width="110" height="40" as="geometry" />
        </mxCell>
        <mxCell id="WgCXtVQOdJW3vV8rvmdJ-998" value="" style="whiteSpace=wrap;html=1;aspect=fixed;" parent="1" vertex="1">
          <mxGeometry x="-1440" y="-3050" width="110" height="40" as="geometry" />
        </mxCell>
        <mxCell id="WgCXtVQOdJW3vV8rvmdJ-1001" value="" style="endArrow=none;dashed=1;html=1;dashPattern=1 3;strokeWidth=3;rounded=0;exitX=1;exitY=0.5;exitDx=0;exitDy=0;entryX=0;entryY=0.5;entryDx=0;entryDy=0;" parent="1" edge="1">
          <mxGeometry width="50" height="50" relative="1" as="geometry">
            <mxPoint x="-1407" y="-2968" as="sourcePoint" />
            <mxPoint x="-1367" y="-2968" as="targetPoint" />
          </mxGeometry>
        </mxCell>
        <mxCell id="WgCXtVQOdJW3vV8rvmdJ-1002" value="" style="whiteSpace=wrap;html=1;aspect=fixed;" parent="1" vertex="1">
          <mxGeometry x="-1520" y="-2990" width="110" height="40" as="geometry" />
        </mxCell>
        <mxCell id="WgCXtVQOdJW3vV8rvmdJ-1003" value="" style="whiteSpace=wrap;html=1;aspect=fixed;" parent="1" vertex="1">
          <mxGeometry x="-1480" y="-2990" width="110" height="40" as="geometry" />
        </mxCell>
        <mxCell id="WgCXtVQOdJW3vV8rvmdJ-1004" value="" style="whiteSpace=wrap;html=1;aspect=fixed;" parent="1" vertex="1">
          <mxGeometry x="-1440" y="-2990" width="110" height="40" as="geometry" />
        </mxCell>
        <mxCell id="WgCXtVQOdJW3vV8rvmdJ-1007" value="" style="endArrow=none;dashed=1;html=1;dashPattern=1 3;strokeWidth=3;rounded=0;exitX=1;exitY=0.5;exitDx=0;exitDy=0;entryX=0;entryY=0.5;entryDx=0;entryDy=0;" parent="1" edge="1">
          <mxGeometry width="50" height="50" relative="1" as="geometry">
            <mxPoint x="-1407" y="-2908" as="sourcePoint" />
            <mxPoint x="-1367" y="-2908" as="targetPoint" />
          </mxGeometry>
        </mxCell>
        <mxCell id="WgCXtVQOdJW3vV8rvmdJ-1008" value="" style="whiteSpace=wrap;html=1;aspect=fixed;" parent="1" vertex="1">
          <mxGeometry x="-1520" y="-2930" width="110" height="40" as="geometry" />
        </mxCell>
        <mxCell id="WgCXtVQOdJW3vV8rvmdJ-1009" value="" style="whiteSpace=wrap;html=1;aspect=fixed;" parent="1" vertex="1">
          <mxGeometry x="-1480" y="-2930" width="110" height="40" as="geometry" />
        </mxCell>
        <mxCell id="WgCXtVQOdJW3vV8rvmdJ-1010" value="" style="whiteSpace=wrap;html=1;aspect=fixed;" parent="1" vertex="1">
          <mxGeometry x="-1440" y="-2930" width="110" height="40" as="geometry" />
        </mxCell>
        <mxCell id="WgCXtVQOdJW3vV8rvmdJ-1013" value="" style="endArrow=none;dashed=1;html=1;dashPattern=1 3;strokeWidth=3;rounded=0;exitX=1;exitY=0.5;exitDx=0;exitDy=0;entryX=0;entryY=0.5;entryDx=0;entryDy=0;" parent="1" edge="1">
          <mxGeometry width="50" height="50" relative="1" as="geometry">
            <mxPoint x="-1407" y="-2808" as="sourcePoint" />
            <mxPoint x="-1367" y="-2808" as="targetPoint" />
          </mxGeometry>
        </mxCell>
        <mxCell id="WgCXtVQOdJW3vV8rvmdJ-1014" value="" style="whiteSpace=wrap;html=1;aspect=fixed;" parent="1" vertex="1">
          <mxGeometry x="-1520" y="-2830" width="110" height="40" as="geometry" />
        </mxCell>
        <mxCell id="WgCXtVQOdJW3vV8rvmdJ-1015" value="" style="whiteSpace=wrap;html=1;aspect=fixed;" parent="1" vertex="1">
          <mxGeometry x="-1480" y="-2830" width="110" height="40" as="geometry" />
        </mxCell>
        <mxCell id="WgCXtVQOdJW3vV8rvmdJ-1016" value="" style="whiteSpace=wrap;html=1;aspect=fixed;" parent="1" vertex="1">
          <mxGeometry x="-1440" y="-2830" width="110" height="40" as="geometry" />
        </mxCell>
        <mxCell id="WgCXtVQOdJW3vV8rvmdJ-1018" value="" style="rounded=0;whiteSpace=wrap;html=1;" parent="1" vertex="1">
          <mxGeometry x="-2140" y="-2670" width="310" height="300" as="geometry" />
        </mxCell>
        <mxCell id="WgCXtVQOdJW3vV8rvmdJ-1019" value="" style="endArrow=none;dashed=1;html=1;dashPattern=1 3;strokeWidth=3;rounded=0;entryX=0.5;entryY=1;entryDx=0;entryDy=0;exitX=0.5;exitY=0;exitDx=0;exitDy=0;" parent="1" edge="1">
          <mxGeometry width="50" height="50" relative="1" as="geometry">
            <mxPoint x="-2021" y="-2444" as="sourcePoint" />
            <mxPoint x="-2021" y="-2484" as="targetPoint" />
          </mxGeometry>
        </mxCell>
        <mxCell id="WgCXtVQOdJW3vV8rvmdJ-1020" value="" style="rounded=0;whiteSpace=wrap;html=1;" parent="1" vertex="1">
          <mxGeometry x="-2130" y="-2660" width="290" height="60" as="geometry" />
        </mxCell>
        <mxCell id="WgCXtVQOdJW3vV8rvmdJ-1021" value="" style="endArrow=none;dashed=1;html=1;dashPattern=1 3;strokeWidth=3;rounded=0;exitX=1;exitY=0.5;exitDx=0;exitDy=0;entryX=0;entryY=0.5;entryDx=0;entryDy=0;" parent="1" edge="1">
          <mxGeometry width="50" height="50" relative="1" as="geometry">
            <mxPoint x="-2007" y="-2628" as="sourcePoint" />
            <mxPoint x="-1967" y="-2628" as="targetPoint" />
          </mxGeometry>
        </mxCell>
        <mxCell id="WgCXtVQOdJW3vV8rvmdJ-1022" value="" style="whiteSpace=wrap;html=1;aspect=fixed;" parent="1" vertex="1">
          <mxGeometry x="-2120" y="-2650" width="110" height="40" as="geometry" />
        </mxCell>
        <mxCell id="WgCXtVQOdJW3vV8rvmdJ-1023" value="" style="whiteSpace=wrap;html=1;aspect=fixed;" parent="1" vertex="1">
          <mxGeometry x="-2080" y="-2650" width="110" height="40" as="geometry" />
        </mxCell>
        <mxCell id="WgCXtVQOdJW3vV8rvmdJ-1024" value="" style="whiteSpace=wrap;html=1;aspect=fixed;" parent="1" vertex="1">
          <mxGeometry x="-2040" y="-2650" width="110" height="40" as="geometry" />
        </mxCell>
        <mxCell id="WgCXtVQOdJW3vV8rvmdJ-1025" value="" style="whiteSpace=wrap;html=1;aspect=fixed;" parent="1" vertex="1">
          <mxGeometry x="-1960" y="-2650" width="110" height="40" as="geometry" />
        </mxCell>
        <mxCell id="WgCXtVQOdJW3vV8rvmdJ-1026" value="" style="rounded=0;whiteSpace=wrap;html=1;" parent="1" vertex="1">
          <mxGeometry x="-2130" y="-2600" width="290" height="60" as="geometry" />
        </mxCell>
        <mxCell id="WgCXtVQOdJW3vV8rvmdJ-1027" value="" style="endArrow=none;dashed=1;html=1;dashPattern=1 3;strokeWidth=3;rounded=0;exitX=1;exitY=0.5;exitDx=0;exitDy=0;entryX=0;entryY=0.5;entryDx=0;entryDy=0;" parent="1" edge="1">
          <mxGeometry width="50" height="50" relative="1" as="geometry">
            <mxPoint x="-2007" y="-2568" as="sourcePoint" />
            <mxPoint x="-1967" y="-2568" as="targetPoint" />
          </mxGeometry>
        </mxCell>
        <mxCell id="WgCXtVQOdJW3vV8rvmdJ-1028" value="" style="whiteSpace=wrap;html=1;aspect=fixed;" parent="1" vertex="1">
          <mxGeometry x="-2120" y="-2590" width="110" height="40" as="geometry" />
        </mxCell>
        <mxCell id="WgCXtVQOdJW3vV8rvmdJ-1029" value="" style="whiteSpace=wrap;html=1;aspect=fixed;" parent="1" vertex="1">
          <mxGeometry x="-2080" y="-2590" width="110" height="40" as="geometry" />
        </mxCell>
        <mxCell id="WgCXtVQOdJW3vV8rvmdJ-1030" value="" style="whiteSpace=wrap;html=1;aspect=fixed;" parent="1" vertex="1">
          <mxGeometry x="-2040" y="-2590" width="110" height="40" as="geometry" />
        </mxCell>
        <mxCell id="WgCXtVQOdJW3vV8rvmdJ-1031" value="" style="whiteSpace=wrap;html=1;aspect=fixed;" parent="1" vertex="1">
          <mxGeometry x="-1960" y="-2590" width="110" height="40" as="geometry" />
        </mxCell>
        <mxCell id="WgCXtVQOdJW3vV8rvmdJ-1032" value="" style="rounded=0;whiteSpace=wrap;html=1;" parent="1" vertex="1">
          <mxGeometry x="-2130" y="-2540" width="290" height="60" as="geometry" />
        </mxCell>
        <mxCell id="WgCXtVQOdJW3vV8rvmdJ-1033" value="" style="endArrow=none;dashed=1;html=1;dashPattern=1 3;strokeWidth=3;rounded=0;exitX=1;exitY=0.5;exitDx=0;exitDy=0;entryX=0;entryY=0.5;entryDx=0;entryDy=0;" parent="1" edge="1">
          <mxGeometry width="50" height="50" relative="1" as="geometry">
            <mxPoint x="-2007" y="-2508" as="sourcePoint" />
            <mxPoint x="-1967" y="-2508" as="targetPoint" />
          </mxGeometry>
        </mxCell>
        <mxCell id="WgCXtVQOdJW3vV8rvmdJ-1034" value="" style="whiteSpace=wrap;html=1;aspect=fixed;" parent="1" vertex="1">
          <mxGeometry x="-2120" y="-2530" width="110" height="40" as="geometry" />
        </mxCell>
        <mxCell id="WgCXtVQOdJW3vV8rvmdJ-1035" value="" style="whiteSpace=wrap;html=1;aspect=fixed;" parent="1" vertex="1">
          <mxGeometry x="-2080" y="-2530" width="110" height="40" as="geometry" />
        </mxCell>
        <mxCell id="WgCXtVQOdJW3vV8rvmdJ-1036" value="" style="whiteSpace=wrap;html=1;aspect=fixed;" parent="1" vertex="1">
          <mxGeometry x="-2040" y="-2530" width="110" height="40" as="geometry" />
        </mxCell>
        <mxCell id="WgCXtVQOdJW3vV8rvmdJ-1037" value="" style="whiteSpace=wrap;html=1;aspect=fixed;" parent="1" vertex="1">
          <mxGeometry x="-1960" y="-2530" width="110" height="40" as="geometry" />
        </mxCell>
        <mxCell id="WgCXtVQOdJW3vV8rvmdJ-1038" value="" style="rounded=0;whiteSpace=wrap;html=1;" parent="1" vertex="1">
          <mxGeometry x="-2130" y="-2440" width="290" height="60" as="geometry" />
        </mxCell>
        <mxCell id="WgCXtVQOdJW3vV8rvmdJ-1039" value="" style="endArrow=none;dashed=1;html=1;dashPattern=1 3;strokeWidth=3;rounded=0;exitX=1;exitY=0.5;exitDx=0;exitDy=0;entryX=0;entryY=0.5;entryDx=0;entryDy=0;" parent="1" edge="1">
          <mxGeometry width="50" height="50" relative="1" as="geometry">
            <mxPoint x="-2007" y="-2408" as="sourcePoint" />
            <mxPoint x="-1967" y="-2408" as="targetPoint" />
          </mxGeometry>
        </mxCell>
        <mxCell id="WgCXtVQOdJW3vV8rvmdJ-1040" value="" style="whiteSpace=wrap;html=1;aspect=fixed;" parent="1" vertex="1">
          <mxGeometry x="-2120" y="-2430" width="110" height="40" as="geometry" />
        </mxCell>
        <mxCell id="WgCXtVQOdJW3vV8rvmdJ-1041" value="" style="whiteSpace=wrap;html=1;aspect=fixed;" parent="1" vertex="1">
          <mxGeometry x="-2080" y="-2430" width="110" height="40" as="geometry" />
        </mxCell>
        <mxCell id="WgCXtVQOdJW3vV8rvmdJ-1042" value="" style="whiteSpace=wrap;html=1;aspect=fixed;" parent="1" vertex="1">
          <mxGeometry x="-2040" y="-2430" width="110" height="40" as="geometry" />
        </mxCell>
        <mxCell id="WgCXtVQOdJW3vV8rvmdJ-1043" value="" style="whiteSpace=wrap;html=1;aspect=fixed;" parent="1" vertex="1">
          <mxGeometry x="-1960" y="-2430" width="110" height="40" as="geometry" />
        </mxCell>
        <mxCell id="WgCXtVQOdJW3vV8rvmdJ-1044" value="" style="rounded=0;whiteSpace=wrap;html=1;" parent="1" vertex="1">
          <mxGeometry x="-1880" y="-2670" width="310" height="300" as="geometry" />
        </mxCell>
        <mxCell id="WgCXtVQOdJW3vV8rvmdJ-1045" value="" style="endArrow=none;dashed=1;html=1;dashPattern=1 3;strokeWidth=3;rounded=0;entryX=0.5;entryY=1;entryDx=0;entryDy=0;exitX=0.5;exitY=0;exitDx=0;exitDy=0;" parent="1" edge="1">
          <mxGeometry width="50" height="50" relative="1" as="geometry">
            <mxPoint x="-1761" y="-2444" as="sourcePoint" />
            <mxPoint x="-1761" y="-2484" as="targetPoint" />
          </mxGeometry>
        </mxCell>
        <mxCell id="WgCXtVQOdJW3vV8rvmdJ-1046" value="" style="rounded=0;whiteSpace=wrap;html=1;" parent="1" vertex="1">
          <mxGeometry x="-1870" y="-2660" width="290" height="60" as="geometry" />
        </mxCell>
        <mxCell id="WgCXtVQOdJW3vV8rvmdJ-1047" value="" style="endArrow=none;dashed=1;html=1;dashPattern=1 3;strokeWidth=3;rounded=0;exitX=1;exitY=0.5;exitDx=0;exitDy=0;entryX=0;entryY=0.5;entryDx=0;entryDy=0;" parent="1" edge="1">
          <mxGeometry width="50" height="50" relative="1" as="geometry">
            <mxPoint x="-1747" y="-2628" as="sourcePoint" />
            <mxPoint x="-1707" y="-2628" as="targetPoint" />
          </mxGeometry>
        </mxCell>
        <mxCell id="WgCXtVQOdJW3vV8rvmdJ-1048" value="" style="whiteSpace=wrap;html=1;aspect=fixed;" parent="1" vertex="1">
          <mxGeometry x="-1860" y="-2650" width="110" height="40" as="geometry" />
        </mxCell>
        <mxCell id="WgCXtVQOdJW3vV8rvmdJ-1049" value="" style="whiteSpace=wrap;html=1;aspect=fixed;" parent="1" vertex="1">
          <mxGeometry x="-1820" y="-2650" width="110" height="40" as="geometry" />
        </mxCell>
        <mxCell id="WgCXtVQOdJW3vV8rvmdJ-1050" value="" style="whiteSpace=wrap;html=1;aspect=fixed;" parent="1" vertex="1">
          <mxGeometry x="-1780" y="-2650" width="110" height="40" as="geometry" />
        </mxCell>
        <mxCell id="WgCXtVQOdJW3vV8rvmdJ-1051" value="" style="whiteSpace=wrap;html=1;aspect=fixed;" parent="1" vertex="1">
          <mxGeometry x="-1700" y="-2650" width="110" height="40" as="geometry" />
        </mxCell>
        <mxCell id="WgCXtVQOdJW3vV8rvmdJ-1052" value="" style="rounded=0;whiteSpace=wrap;html=1;" parent="1" vertex="1">
          <mxGeometry x="-1870" y="-2600" width="290" height="60" as="geometry" />
        </mxCell>
        <mxCell id="WgCXtVQOdJW3vV8rvmdJ-1053" value="" style="endArrow=none;dashed=1;html=1;dashPattern=1 3;strokeWidth=3;rounded=0;exitX=1;exitY=0.5;exitDx=0;exitDy=0;entryX=0;entryY=0.5;entryDx=0;entryDy=0;" parent="1" edge="1">
          <mxGeometry width="50" height="50" relative="1" as="geometry">
            <mxPoint x="-1747" y="-2568" as="sourcePoint" />
            <mxPoint x="-1707" y="-2568" as="targetPoint" />
          </mxGeometry>
        </mxCell>
        <mxCell id="WgCXtVQOdJW3vV8rvmdJ-1054" value="" style="whiteSpace=wrap;html=1;aspect=fixed;" parent="1" vertex="1">
          <mxGeometry x="-1860" y="-2590" width="110" height="40" as="geometry" />
        </mxCell>
        <mxCell id="WgCXtVQOdJW3vV8rvmdJ-1055" value="" style="whiteSpace=wrap;html=1;aspect=fixed;" parent="1" vertex="1">
          <mxGeometry x="-1820" y="-2590" width="110" height="40" as="geometry" />
        </mxCell>
        <mxCell id="WgCXtVQOdJW3vV8rvmdJ-1056" value="" style="whiteSpace=wrap;html=1;aspect=fixed;" parent="1" vertex="1">
          <mxGeometry x="-1780" y="-2590" width="110" height="40" as="geometry" />
        </mxCell>
        <mxCell id="WgCXtVQOdJW3vV8rvmdJ-1057" value="" style="whiteSpace=wrap;html=1;aspect=fixed;" parent="1" vertex="1">
          <mxGeometry x="-1700" y="-2590" width="110" height="40" as="geometry" />
        </mxCell>
        <mxCell id="WgCXtVQOdJW3vV8rvmdJ-1058" value="" style="rounded=0;whiteSpace=wrap;html=1;" parent="1" vertex="1">
          <mxGeometry x="-1870" y="-2540" width="290" height="60" as="geometry" />
        </mxCell>
        <mxCell id="WgCXtVQOdJW3vV8rvmdJ-1059" value="" style="endArrow=none;dashed=1;html=1;dashPattern=1 3;strokeWidth=3;rounded=0;exitX=1;exitY=0.5;exitDx=0;exitDy=0;entryX=0;entryY=0.5;entryDx=0;entryDy=0;" parent="1" edge="1">
          <mxGeometry width="50" height="50" relative="1" as="geometry">
            <mxPoint x="-1747" y="-2508" as="sourcePoint" />
            <mxPoint x="-1707" y="-2508" as="targetPoint" />
          </mxGeometry>
        </mxCell>
        <mxCell id="WgCXtVQOdJW3vV8rvmdJ-1060" value="" style="whiteSpace=wrap;html=1;aspect=fixed;" parent="1" vertex="1">
          <mxGeometry x="-1860" y="-2530" width="110" height="40" as="geometry" />
        </mxCell>
        <mxCell id="WgCXtVQOdJW3vV8rvmdJ-1061" value="" style="whiteSpace=wrap;html=1;aspect=fixed;" parent="1" vertex="1">
          <mxGeometry x="-1820" y="-2530" width="110" height="40" as="geometry" />
        </mxCell>
        <mxCell id="WgCXtVQOdJW3vV8rvmdJ-1062" value="" style="whiteSpace=wrap;html=1;aspect=fixed;" parent="1" vertex="1">
          <mxGeometry x="-1780" y="-2530" width="110" height="40" as="geometry" />
        </mxCell>
        <mxCell id="WgCXtVQOdJW3vV8rvmdJ-1063" value="" style="whiteSpace=wrap;html=1;aspect=fixed;" parent="1" vertex="1">
          <mxGeometry x="-1700" y="-2530" width="110" height="40" as="geometry" />
        </mxCell>
        <mxCell id="WgCXtVQOdJW3vV8rvmdJ-1064" value="" style="rounded=0;whiteSpace=wrap;html=1;" parent="1" vertex="1">
          <mxGeometry x="-1870" y="-2440" width="290" height="60" as="geometry" />
        </mxCell>
        <mxCell id="WgCXtVQOdJW3vV8rvmdJ-1065" value="" style="endArrow=none;dashed=1;html=1;dashPattern=1 3;strokeWidth=3;rounded=0;exitX=1;exitY=0.5;exitDx=0;exitDy=0;entryX=0;entryY=0.5;entryDx=0;entryDy=0;" parent="1" edge="1">
          <mxGeometry width="50" height="50" relative="1" as="geometry">
            <mxPoint x="-1747" y="-2408" as="sourcePoint" />
            <mxPoint x="-1707" y="-2408" as="targetPoint" />
          </mxGeometry>
        </mxCell>
        <mxCell id="WgCXtVQOdJW3vV8rvmdJ-1066" value="" style="whiteSpace=wrap;html=1;aspect=fixed;" parent="1" vertex="1">
          <mxGeometry x="-1860" y="-2430" width="110" height="40" as="geometry" />
        </mxCell>
        <mxCell id="WgCXtVQOdJW3vV8rvmdJ-1067" value="" style="whiteSpace=wrap;html=1;aspect=fixed;" parent="1" vertex="1">
          <mxGeometry x="-1820" y="-2430" width="110" height="40" as="geometry" />
        </mxCell>
        <mxCell id="WgCXtVQOdJW3vV8rvmdJ-1068" value="" style="whiteSpace=wrap;html=1;aspect=fixed;" parent="1" vertex="1">
          <mxGeometry x="-1780" y="-2430" width="110" height="40" as="geometry" />
        </mxCell>
        <mxCell id="WgCXtVQOdJW3vV8rvmdJ-1069" value="" style="whiteSpace=wrap;html=1;aspect=fixed;" parent="1" vertex="1">
          <mxGeometry x="-1700" y="-2430" width="110" height="40" as="geometry" />
        </mxCell>
        <mxCell id="WgCXtVQOdJW3vV8rvmdJ-1071" value="" style="endArrow=none;dashed=1;html=1;dashPattern=1 3;strokeWidth=3;rounded=0;entryX=0.5;entryY=1;entryDx=0;entryDy=0;exitX=0.5;exitY=0;exitDx=0;exitDy=0;" parent="1" edge="1">
          <mxGeometry width="50" height="50" relative="1" as="geometry">
            <mxPoint x="-1421" y="-2444" as="sourcePoint" />
            <mxPoint x="-1421" y="-2484" as="targetPoint" />
          </mxGeometry>
        </mxCell>
        <mxCell id="WgCXtVQOdJW3vV8rvmdJ-1073" value="" style="endArrow=none;dashed=1;html=1;dashPattern=1 3;strokeWidth=3;rounded=0;exitX=1;exitY=0.5;exitDx=0;exitDy=0;entryX=0;entryY=0.5;entryDx=0;entryDy=0;" parent="1" edge="1">
          <mxGeometry width="50" height="50" relative="1" as="geometry">
            <mxPoint x="-1407" y="-2628" as="sourcePoint" />
            <mxPoint x="-1367" y="-2628" as="targetPoint" />
          </mxGeometry>
        </mxCell>
        <mxCell id="WgCXtVQOdJW3vV8rvmdJ-1074" value="" style="whiteSpace=wrap;html=1;aspect=fixed;" parent="1" vertex="1">
          <mxGeometry x="-1520" y="-2650" width="110" height="40" as="geometry" />
        </mxCell>
        <mxCell id="WgCXtVQOdJW3vV8rvmdJ-1075" value="" style="whiteSpace=wrap;html=1;aspect=fixed;" parent="1" vertex="1">
          <mxGeometry x="-1480" y="-2650" width="110" height="40" as="geometry" />
        </mxCell>
        <mxCell id="WgCXtVQOdJW3vV8rvmdJ-1076" value="" style="whiteSpace=wrap;html=1;aspect=fixed;" parent="1" vertex="1">
          <mxGeometry x="-1440" y="-2650" width="110" height="40" as="geometry" />
        </mxCell>
        <mxCell id="WgCXtVQOdJW3vV8rvmdJ-1079" value="" style="endArrow=none;dashed=1;html=1;dashPattern=1 3;strokeWidth=3;rounded=0;exitX=1;exitY=0.5;exitDx=0;exitDy=0;entryX=0;entryY=0.5;entryDx=0;entryDy=0;" parent="1" edge="1">
          <mxGeometry width="50" height="50" relative="1" as="geometry">
            <mxPoint x="-1407" y="-2568" as="sourcePoint" />
            <mxPoint x="-1367" y="-2568" as="targetPoint" />
          </mxGeometry>
        </mxCell>
        <mxCell id="WgCXtVQOdJW3vV8rvmdJ-1080" value="" style="whiteSpace=wrap;html=1;aspect=fixed;" parent="1" vertex="1">
          <mxGeometry x="-1520" y="-2590" width="110" height="40" as="geometry" />
        </mxCell>
        <mxCell id="WgCXtVQOdJW3vV8rvmdJ-1081" value="" style="whiteSpace=wrap;html=1;aspect=fixed;" parent="1" vertex="1">
          <mxGeometry x="-1480" y="-2590" width="110" height="40" as="geometry" />
        </mxCell>
        <mxCell id="WgCXtVQOdJW3vV8rvmdJ-1082" value="" style="whiteSpace=wrap;html=1;aspect=fixed;" parent="1" vertex="1">
          <mxGeometry x="-1440" y="-2590" width="110" height="40" as="geometry" />
        </mxCell>
        <mxCell id="WgCXtVQOdJW3vV8rvmdJ-1085" value="" style="endArrow=none;dashed=1;html=1;dashPattern=1 3;strokeWidth=3;rounded=0;exitX=1;exitY=0.5;exitDx=0;exitDy=0;entryX=0;entryY=0.5;entryDx=0;entryDy=0;" parent="1" edge="1">
          <mxGeometry width="50" height="50" relative="1" as="geometry">
            <mxPoint x="-1407" y="-2508" as="sourcePoint" />
            <mxPoint x="-1367" y="-2508" as="targetPoint" />
          </mxGeometry>
        </mxCell>
        <mxCell id="WgCXtVQOdJW3vV8rvmdJ-1086" value="" style="whiteSpace=wrap;html=1;aspect=fixed;" parent="1" vertex="1">
          <mxGeometry x="-1520" y="-2530" width="110" height="40" as="geometry" />
        </mxCell>
        <mxCell id="WgCXtVQOdJW3vV8rvmdJ-1087" value="" style="whiteSpace=wrap;html=1;aspect=fixed;" parent="1" vertex="1">
          <mxGeometry x="-1480" y="-2530" width="110" height="40" as="geometry" />
        </mxCell>
        <mxCell id="WgCXtVQOdJW3vV8rvmdJ-1088" value="" style="whiteSpace=wrap;html=1;aspect=fixed;" parent="1" vertex="1">
          <mxGeometry x="-1440" y="-2530" width="110" height="40" as="geometry" />
        </mxCell>
        <mxCell id="WgCXtVQOdJW3vV8rvmdJ-1091" value="" style="endArrow=none;dashed=1;html=1;dashPattern=1 3;strokeWidth=3;rounded=0;exitX=1;exitY=0.5;exitDx=0;exitDy=0;entryX=0;entryY=0.5;entryDx=0;entryDy=0;" parent="1" edge="1">
          <mxGeometry width="50" height="50" relative="1" as="geometry">
            <mxPoint x="-1407" y="-2408" as="sourcePoint" />
            <mxPoint x="-1367" y="-2408" as="targetPoint" />
          </mxGeometry>
        </mxCell>
        <mxCell id="WgCXtVQOdJW3vV8rvmdJ-1092" value="" style="whiteSpace=wrap;html=1;aspect=fixed;" parent="1" vertex="1">
          <mxGeometry x="-1520" y="-2430" width="110" height="40" as="geometry" />
        </mxCell>
        <mxCell id="WgCXtVQOdJW3vV8rvmdJ-1093" value="" style="whiteSpace=wrap;html=1;aspect=fixed;" parent="1" vertex="1">
          <mxGeometry x="-1480" y="-2430" width="110" height="40" as="geometry" />
        </mxCell>
        <mxCell id="WgCXtVQOdJW3vV8rvmdJ-1094" value="" style="whiteSpace=wrap;html=1;aspect=fixed;" parent="1" vertex="1">
          <mxGeometry x="-1440" y="-2430" width="110" height="40" as="geometry" />
        </mxCell>
        <mxCell id="WgCXtVQOdJW3vV8rvmdJ-432" value="" style="rounded=0;whiteSpace=wrap;html=1;fillColor=#f5f5f5;strokeColor=#666666;fontColor=#333333;strokeWidth=3;shadow=1;gradientColor=none;perimeterSpacing=0;" parent="1" vertex="1">
          <mxGeometry x="-2170" y="-3420" width="880" height="1060" as="geometry" />
        </mxCell>
        <mxCell id="WgCXtVQOdJW3vV8rvmdJ-193" value="" style="rounded=0;whiteSpace=wrap;html=1;fillColor=#d5e8d4;strokeColor=#82b366;" parent="1" vertex="1">
          <mxGeometry x="-2150" y="-3400" width="240" height="300" as="geometry" />
        </mxCell>
        <mxCell id="WgCXtVQOdJW3vV8rvmdJ-194" value="" style="endArrow=none;dashed=1;html=1;dashPattern=1 3;strokeWidth=3;rounded=0;entryX=0.5;entryY=1;entryDx=0;entryDy=0;exitX=0.5;exitY=0;exitDx=0;exitDy=0;" parent="1" edge="1">
          <mxGeometry width="50" height="50" relative="1" as="geometry">
            <mxPoint x="-2031" y="-3174" as="sourcePoint" />
            <mxPoint x="-2031" y="-3214" as="targetPoint" />
          </mxGeometry>
        </mxCell>
        <mxCell id="WgCXtVQOdJW3vV8rvmdJ-195" value="" style="rounded=0;whiteSpace=wrap;html=1;fillColor=#dae8fc;strokeColor=#6c8ebf;" parent="1" vertex="1">
          <mxGeometry x="-2140" y="-3390" width="220" height="60" as="geometry" />
        </mxCell>
        <mxCell id="WgCXtVQOdJW3vV8rvmdJ-196" value="" style="endArrow=none;dashed=1;html=1;dashPattern=1 3;strokeWidth=3;rounded=0;exitX=1;exitY=0.5;exitDx=0;exitDy=0;entryX=0;entryY=0.5;entryDx=0;entryDy=0;" parent="1" edge="1">
          <mxGeometry width="50" height="50" relative="1" as="geometry">
            <mxPoint x="-2017" y="-3358" as="sourcePoint" />
            <mxPoint x="-1977" y="-3358" as="targetPoint" />
          </mxGeometry>
        </mxCell>
        <mxCell id="WgCXtVQOdJW3vV8rvmdJ-197" value="" style="whiteSpace=wrap;html=1;aspect=fixed;" parent="1" vertex="1">
          <mxGeometry x="-2130" y="-3380" width="40" height="40" as="geometry" />
        </mxCell>
        <mxCell id="WgCXtVQOdJW3vV8rvmdJ-198" value="" style="whiteSpace=wrap;html=1;aspect=fixed;" parent="1" vertex="1">
          <mxGeometry x="-2090" y="-3380" width="40" height="40" as="geometry" />
        </mxCell>
        <mxCell id="WgCXtVQOdJW3vV8rvmdJ-199" value="" style="whiteSpace=wrap;html=1;aspect=fixed;" parent="1" vertex="1">
          <mxGeometry x="-2050" y="-3380" width="40" height="40" as="geometry" />
        </mxCell>
        <mxCell id="WgCXtVQOdJW3vV8rvmdJ-200" value="" style="whiteSpace=wrap;html=1;aspect=fixed;" parent="1" vertex="1">
          <mxGeometry x="-1970" y="-3380" width="40" height="40" as="geometry" />
        </mxCell>
        <mxCell id="WgCXtVQOdJW3vV8rvmdJ-201" value="" style="rounded=0;whiteSpace=wrap;html=1;fillColor=#dae8fc;strokeColor=#6c8ebf;" parent="1" vertex="1">
          <mxGeometry x="-2140" y="-3330" width="220" height="60" as="geometry" />
        </mxCell>
        <mxCell id="WgCXtVQOdJW3vV8rvmdJ-202" value="" style="endArrow=none;dashed=1;html=1;dashPattern=1 3;strokeWidth=3;rounded=0;exitX=1;exitY=0.5;exitDx=0;exitDy=0;entryX=0;entryY=0.5;entryDx=0;entryDy=0;" parent="1" edge="1">
          <mxGeometry width="50" height="50" relative="1" as="geometry">
            <mxPoint x="-2017" y="-3298" as="sourcePoint" />
            <mxPoint x="-1977" y="-3298" as="targetPoint" />
          </mxGeometry>
        </mxCell>
        <mxCell id="WgCXtVQOdJW3vV8rvmdJ-203" value="" style="whiteSpace=wrap;html=1;aspect=fixed;fillColor=#f8cecc;strokeColor=#b85450;" parent="1" vertex="1">
          <mxGeometry x="-2130" y="-3320" width="40" height="40" as="geometry" />
        </mxCell>
        <mxCell id="WgCXtVQOdJW3vV8rvmdJ-204" value="" style="whiteSpace=wrap;html=1;aspect=fixed;fillColor=#f8cecc;strokeColor=#b85450;" parent="1" vertex="1">
          <mxGeometry x="-2090" y="-3320" width="40" height="40" as="geometry" />
        </mxCell>
        <mxCell id="WgCXtVQOdJW3vV8rvmdJ-205" value="" style="whiteSpace=wrap;html=1;aspect=fixed;fillColor=#f8cecc;strokeColor=#b85450;" parent="1" vertex="1">
          <mxGeometry x="-2050" y="-3320" width="40" height="40" as="geometry" />
        </mxCell>
        <mxCell id="WgCXtVQOdJW3vV8rvmdJ-206" value="" style="whiteSpace=wrap;html=1;aspect=fixed;" parent="1" vertex="1">
          <mxGeometry x="-1970" y="-3320" width="40" height="40" as="geometry" />
        </mxCell>
        <mxCell id="WgCXtVQOdJW3vV8rvmdJ-207" value="" style="rounded=0;whiteSpace=wrap;html=1;fillColor=#dae8fc;strokeColor=#6c8ebf;" parent="1" vertex="1">
          <mxGeometry x="-2140" y="-3270" width="220" height="60" as="geometry" />
        </mxCell>
        <mxCell id="WgCXtVQOdJW3vV8rvmdJ-208" value="" style="endArrow=none;dashed=1;html=1;dashPattern=1 3;strokeWidth=3;rounded=0;exitX=1;exitY=0.5;exitDx=0;exitDy=0;entryX=0;entryY=0.5;entryDx=0;entryDy=0;" parent="1" edge="1">
          <mxGeometry width="50" height="50" relative="1" as="geometry">
            <mxPoint x="-2017" y="-3238" as="sourcePoint" />
            <mxPoint x="-1977" y="-3238" as="targetPoint" />
          </mxGeometry>
        </mxCell>
        <mxCell id="WgCXtVQOdJW3vV8rvmdJ-209" value="" style="whiteSpace=wrap;html=1;aspect=fixed;fillColor=#f8cecc;strokeColor=#b85450;" parent="1" vertex="1">
          <mxGeometry x="-2130" y="-3260" width="40" height="40" as="geometry" />
        </mxCell>
        <mxCell id="WgCXtVQOdJW3vV8rvmdJ-210" value="" style="whiteSpace=wrap;html=1;aspect=fixed;fillColor=#f8cecc;strokeColor=#b85450;" parent="1" vertex="1">
          <mxGeometry x="-2090" y="-3260" width="40" height="40" as="geometry" />
        </mxCell>
        <mxCell id="WgCXtVQOdJW3vV8rvmdJ-211" value="" style="whiteSpace=wrap;html=1;aspect=fixed;fillColor=#f8cecc;strokeColor=#b85450;" parent="1" vertex="1">
          <mxGeometry x="-2050" y="-3260" width="40" height="40" as="geometry" />
        </mxCell>
        <mxCell id="WgCXtVQOdJW3vV8rvmdJ-212" value="" style="whiteSpace=wrap;html=1;aspect=fixed;" parent="1" vertex="1">
          <mxGeometry x="-1970" y="-3260" width="40" height="40" as="geometry" />
        </mxCell>
        <mxCell id="WgCXtVQOdJW3vV8rvmdJ-213" value="" style="rounded=0;whiteSpace=wrap;html=1;fillColor=#dae8fc;strokeColor=#6c8ebf;" parent="1" vertex="1">
          <mxGeometry x="-2140" y="-3170" width="220" height="60" as="geometry" />
        </mxCell>
        <mxCell id="WgCXtVQOdJW3vV8rvmdJ-214" value="" style="endArrow=none;dashed=1;html=1;dashPattern=1 3;strokeWidth=3;rounded=0;exitX=1;exitY=0.5;exitDx=0;exitDy=0;entryX=0;entryY=0.5;entryDx=0;entryDy=0;" parent="1" edge="1">
          <mxGeometry width="50" height="50" relative="1" as="geometry">
            <mxPoint x="-2017" y="-3138" as="sourcePoint" />
            <mxPoint x="-1977" y="-3138" as="targetPoint" />
          </mxGeometry>
        </mxCell>
        <mxCell id="WgCXtVQOdJW3vV8rvmdJ-215" value="" style="whiteSpace=wrap;html=1;aspect=fixed;fillColor=#f8cecc;strokeColor=#b85450;" parent="1" vertex="1">
          <mxGeometry x="-2130" y="-3160" width="40" height="40" as="geometry" />
        </mxCell>
        <mxCell id="WgCXtVQOdJW3vV8rvmdJ-216" value="" style="whiteSpace=wrap;html=1;aspect=fixed;fillColor=#f8cecc;strokeColor=#b85450;" parent="1" vertex="1">
          <mxGeometry x="-2090" y="-3160" width="40" height="40" as="geometry" />
        </mxCell>
        <mxCell id="WgCXtVQOdJW3vV8rvmdJ-217" value="" style="whiteSpace=wrap;html=1;aspect=fixed;fillColor=#f8cecc;strokeColor=#b85450;" parent="1" vertex="1">
          <mxGeometry x="-2050" y="-3160" width="40" height="40" as="geometry" />
        </mxCell>
        <mxCell id="WgCXtVQOdJW3vV8rvmdJ-218" value="" style="whiteSpace=wrap;html=1;aspect=fixed;fillColor=#f8cecc;strokeColor=#b85450;" parent="1" vertex="1">
          <mxGeometry x="-1970" y="-3160" width="40" height="40" as="geometry" />
        </mxCell>
        <mxCell id="WgCXtVQOdJW3vV8rvmdJ-428" value="" style="endArrow=none;dashed=1;html=1;dashPattern=1 3;strokeWidth=5;rounded=0;" parent="1" edge="1">
          <mxGeometry width="50" height="50" relative="1" as="geometry">
            <mxPoint x="-1624" y="-3088" as="sourcePoint" />
            <mxPoint x="-1564" y="-3088" as="targetPoint" />
          </mxGeometry>
        </mxCell>
        <mxCell id="WgCXtVQOdJW3vV8rvmdJ-429" value="" style="endArrow=none;dashed=1;html=1;dashPattern=1 3;strokeWidth=5;rounded=0;" parent="1" edge="1">
          <mxGeometry width="50" height="50" relative="1" as="geometry">
            <mxPoint x="-1624" y="-2523" as="sourcePoint" />
            <mxPoint x="-1564" y="-2523" as="targetPoint" />
          </mxGeometry>
        </mxCell>
        <mxCell id="WgCXtVQOdJW3vV8rvmdJ-430" value="" style="endArrow=none;dashed=1;html=1;dashPattern=1 3;strokeWidth=5;rounded=0;" parent="1" edge="1">
          <mxGeometry width="50" height="50" relative="1" as="geometry">
            <mxPoint x="-1431" y="-2751" as="sourcePoint" />
            <mxPoint x="-1431" y="-2691" as="targetPoint" />
          </mxGeometry>
        </mxCell>
        <mxCell id="WgCXtVQOdJW3vV8rvmdJ-431" value="" style="endArrow=none;dashed=1;html=1;dashPattern=1 3;strokeWidth=5;rounded=0;" parent="1" edge="1">
          <mxGeometry width="50" height="50" relative="1" as="geometry">
            <mxPoint x="-1902" y="-2751" as="sourcePoint" />
            <mxPoint x="-1902" y="-2691" as="targetPoint" />
          </mxGeometry>
        </mxCell>
        <mxCell id="WgCXtVQOdJW3vV8rvmdJ-443" value="&lt;font style=&quot;font-size: 52px;&quot;&gt;Grid&lt;/font&gt;" style="text;html=1;strokeColor=#666666;fillColor=#f5f5f5;align=center;verticalAlign=middle;whiteSpace=wrap;rounded=0;fontSize=52;fontColor=#333333;fontStyle=0;fontFamily=Input Mono;" parent="1" vertex="1">
          <mxGeometry x="-2440" y="-3500" width="200" height="100" as="geometry" />
        </mxCell>
        <mxCell id="WgCXtVQOdJW3vV8rvmdJ-444" value="" style="endArrow=none;html=1;rounded=0;" parent="1" source="WgCXtVQOdJW3vV8rvmdJ-432" target="WgCXtVQOdJW3vV8rvmdJ-443" edge="1">
          <mxGeometry width="50" height="50" relative="1" as="geometry">
            <mxPoint x="-1701" y="-2912" as="sourcePoint" />
            <mxPoint x="-1651" y="-2962" as="targetPoint" />
          </mxGeometry>
        </mxCell>
        <mxCell id="WgCXtVQOdJW3vV8rvmdJ-647" value="" style="rounded=0;whiteSpace=wrap;html=1;" parent="1" vertex="1">
          <mxGeometry x="-1890" y="-3400" width="240" height="300" as="geometry" />
        </mxCell>
        <mxCell id="WgCXtVQOdJW3vV8rvmdJ-648" value="" style="endArrow=none;dashed=1;html=1;dashPattern=1 3;strokeWidth=3;rounded=0;entryX=0.5;entryY=1;entryDx=0;entryDy=0;exitX=0.5;exitY=0;exitDx=0;exitDy=0;" parent="1" edge="1">
          <mxGeometry width="50" height="50" relative="1" as="geometry">
            <mxPoint x="-1771" y="-3174" as="sourcePoint" />
            <mxPoint x="-1771" y="-3214" as="targetPoint" />
          </mxGeometry>
        </mxCell>
        <mxCell id="WgCXtVQOdJW3vV8rvmdJ-649" value="" style="rounded=0;whiteSpace=wrap;html=1;" parent="1" vertex="1">
          <mxGeometry x="-1880" y="-3390" width="220" height="60" as="geometry" />
        </mxCell>
        <mxCell id="WgCXtVQOdJW3vV8rvmdJ-650" value="" style="endArrow=none;dashed=1;html=1;dashPattern=1 3;strokeWidth=3;rounded=0;exitX=1;exitY=0.5;exitDx=0;exitDy=0;entryX=0;entryY=0.5;entryDx=0;entryDy=0;" parent="1" edge="1">
          <mxGeometry width="50" height="50" relative="1" as="geometry">
            <mxPoint x="-1757" y="-3358" as="sourcePoint" />
            <mxPoint x="-1717" y="-3358" as="targetPoint" />
          </mxGeometry>
        </mxCell>
        <mxCell id="WgCXtVQOdJW3vV8rvmdJ-651" value="" style="whiteSpace=wrap;html=1;aspect=fixed;" parent="1" vertex="1">
          <mxGeometry x="-1870" y="-3380" width="40" height="40" as="geometry" />
        </mxCell>
        <mxCell id="WgCXtVQOdJW3vV8rvmdJ-652" value="" style="whiteSpace=wrap;html=1;aspect=fixed;" parent="1" vertex="1">
          <mxGeometry x="-1830" y="-3380" width="40" height="40" as="geometry" />
        </mxCell>
        <mxCell id="WgCXtVQOdJW3vV8rvmdJ-653" value="" style="whiteSpace=wrap;html=1;aspect=fixed;" parent="1" vertex="1">
          <mxGeometry x="-1790" y="-3380" width="40" height="40" as="geometry" />
        </mxCell>
        <mxCell id="WgCXtVQOdJW3vV8rvmdJ-654" value="" style="whiteSpace=wrap;html=1;aspect=fixed;" parent="1" vertex="1">
          <mxGeometry x="-1710" y="-3380" width="40" height="40" as="geometry" />
        </mxCell>
        <mxCell id="WgCXtVQOdJW3vV8rvmdJ-655" value="" style="rounded=0;whiteSpace=wrap;html=1;" parent="1" vertex="1">
          <mxGeometry x="-1880" y="-3330" width="220" height="60" as="geometry" />
        </mxCell>
        <mxCell id="WgCXtVQOdJW3vV8rvmdJ-656" value="" style="endArrow=none;dashed=1;html=1;dashPattern=1 3;strokeWidth=3;rounded=0;exitX=1;exitY=0.5;exitDx=0;exitDy=0;entryX=0;entryY=0.5;entryDx=0;entryDy=0;" parent="1" edge="1">
          <mxGeometry width="50" height="50" relative="1" as="geometry">
            <mxPoint x="-1757" y="-3298" as="sourcePoint" />
            <mxPoint x="-1717" y="-3298" as="targetPoint" />
          </mxGeometry>
        </mxCell>
        <mxCell id="WgCXtVQOdJW3vV8rvmdJ-657" value="" style="whiteSpace=wrap;html=1;aspect=fixed;" parent="1" vertex="1">
          <mxGeometry x="-1870" y="-3320" width="40" height="40" as="geometry" />
        </mxCell>
        <mxCell id="WgCXtVQOdJW3vV8rvmdJ-658" value="" style="whiteSpace=wrap;html=1;aspect=fixed;" parent="1" vertex="1">
          <mxGeometry x="-1830" y="-3320" width="40" height="40" as="geometry" />
        </mxCell>
        <mxCell id="WgCXtVQOdJW3vV8rvmdJ-659" value="" style="whiteSpace=wrap;html=1;aspect=fixed;" parent="1" vertex="1">
          <mxGeometry x="-1790" y="-3320" width="40" height="40" as="geometry" />
        </mxCell>
        <mxCell id="WgCXtVQOdJW3vV8rvmdJ-660" value="" style="whiteSpace=wrap;html=1;aspect=fixed;" parent="1" vertex="1">
          <mxGeometry x="-1710" y="-3320" width="40" height="40" as="geometry" />
        </mxCell>
        <mxCell id="WgCXtVQOdJW3vV8rvmdJ-661" value="" style="rounded=0;whiteSpace=wrap;html=1;" parent="1" vertex="1">
          <mxGeometry x="-1880" y="-3270" width="220" height="60" as="geometry" />
        </mxCell>
        <mxCell id="WgCXtVQOdJW3vV8rvmdJ-662" value="" style="endArrow=none;dashed=1;html=1;dashPattern=1 3;strokeWidth=3;rounded=0;exitX=1;exitY=0.5;exitDx=0;exitDy=0;entryX=0;entryY=0.5;entryDx=0;entryDy=0;" parent="1" edge="1">
          <mxGeometry width="50" height="50" relative="1" as="geometry">
            <mxPoint x="-1757" y="-3238" as="sourcePoint" />
            <mxPoint x="-1717" y="-3238" as="targetPoint" />
          </mxGeometry>
        </mxCell>
        <mxCell id="WgCXtVQOdJW3vV8rvmdJ-663" value="" style="whiteSpace=wrap;html=1;aspect=fixed;" parent="1" vertex="1">
          <mxGeometry x="-1870" y="-3260" width="40" height="40" as="geometry" />
        </mxCell>
        <mxCell id="WgCXtVQOdJW3vV8rvmdJ-664" value="" style="whiteSpace=wrap;html=1;aspect=fixed;" parent="1" vertex="1">
          <mxGeometry x="-1830" y="-3260" width="40" height="40" as="geometry" />
        </mxCell>
        <mxCell id="WgCXtVQOdJW3vV8rvmdJ-665" value="" style="whiteSpace=wrap;html=1;aspect=fixed;" parent="1" vertex="1">
          <mxGeometry x="-1790" y="-3260" width="40" height="40" as="geometry" />
        </mxCell>
        <mxCell id="WgCXtVQOdJW3vV8rvmdJ-666" value="" style="whiteSpace=wrap;html=1;aspect=fixed;" parent="1" vertex="1">
          <mxGeometry x="-1710" y="-3260" width="40" height="40" as="geometry" />
        </mxCell>
        <mxCell id="WgCXtVQOdJW3vV8rvmdJ-667" value="" style="rounded=0;whiteSpace=wrap;html=1;" parent="1" vertex="1">
          <mxGeometry x="-1880" y="-3170" width="220" height="60" as="geometry" />
        </mxCell>
        <mxCell id="WgCXtVQOdJW3vV8rvmdJ-668" value="" style="endArrow=none;dashed=1;html=1;dashPattern=1 3;strokeWidth=3;rounded=0;exitX=1;exitY=0.5;exitDx=0;exitDy=0;entryX=0;entryY=0.5;entryDx=0;entryDy=0;" parent="1" edge="1">
          <mxGeometry width="50" height="50" relative="1" as="geometry">
            <mxPoint x="-1757" y="-3138" as="sourcePoint" />
            <mxPoint x="-1717" y="-3138" as="targetPoint" />
          </mxGeometry>
        </mxCell>
        <mxCell id="WgCXtVQOdJW3vV8rvmdJ-669" value="" style="whiteSpace=wrap;html=1;aspect=fixed;" parent="1" vertex="1">
          <mxGeometry x="-1870" y="-3160" width="40" height="40" as="geometry" />
        </mxCell>
        <mxCell id="WgCXtVQOdJW3vV8rvmdJ-670" value="" style="whiteSpace=wrap;html=1;aspect=fixed;" parent="1" vertex="1">
          <mxGeometry x="-1830" y="-3160" width="40" height="40" as="geometry" />
        </mxCell>
        <mxCell id="WgCXtVQOdJW3vV8rvmdJ-671" value="" style="whiteSpace=wrap;html=1;aspect=fixed;" parent="1" vertex="1">
          <mxGeometry x="-1790" y="-3160" width="40" height="40" as="geometry" />
        </mxCell>
        <mxCell id="WgCXtVQOdJW3vV8rvmdJ-672" value="" style="whiteSpace=wrap;html=1;aspect=fixed;" parent="1" vertex="1">
          <mxGeometry x="-1710" y="-3160" width="40" height="40" as="geometry" />
        </mxCell>
        <mxCell id="WgCXtVQOdJW3vV8rvmdJ-673" value="" style="rounded=0;whiteSpace=wrap;html=1;" parent="1" vertex="1">
          <mxGeometry x="-2150" y="-3080" width="240" height="300" as="geometry" />
        </mxCell>
        <mxCell id="WgCXtVQOdJW3vV8rvmdJ-674" value="" style="endArrow=none;dashed=1;html=1;dashPattern=1 3;strokeWidth=3;rounded=0;entryX=0.5;entryY=1;entryDx=0;entryDy=0;exitX=0.5;exitY=0;exitDx=0;exitDy=0;" parent="1" edge="1">
          <mxGeometry width="50" height="50" relative="1" as="geometry">
            <mxPoint x="-2031" y="-2854" as="sourcePoint" />
            <mxPoint x="-2031" y="-2894" as="targetPoint" />
          </mxGeometry>
        </mxCell>
        <mxCell id="WgCXtVQOdJW3vV8rvmdJ-675" value="" style="rounded=0;whiteSpace=wrap;html=1;" parent="1" vertex="1">
          <mxGeometry x="-2140" y="-3070" width="220" height="60" as="geometry" />
        </mxCell>
        <mxCell id="WgCXtVQOdJW3vV8rvmdJ-676" value="" style="endArrow=none;dashed=1;html=1;dashPattern=1 3;strokeWidth=3;rounded=0;exitX=1;exitY=0.5;exitDx=0;exitDy=0;entryX=0;entryY=0.5;entryDx=0;entryDy=0;" parent="1" edge="1">
          <mxGeometry width="50" height="50" relative="1" as="geometry">
            <mxPoint x="-2017" y="-3038" as="sourcePoint" />
            <mxPoint x="-1977" y="-3038" as="targetPoint" />
          </mxGeometry>
        </mxCell>
        <mxCell id="WgCXtVQOdJW3vV8rvmdJ-677" value="" style="whiteSpace=wrap;html=1;aspect=fixed;" parent="1" vertex="1">
          <mxGeometry x="-2130" y="-3060" width="40" height="40" as="geometry" />
        </mxCell>
        <mxCell id="WgCXtVQOdJW3vV8rvmdJ-678" value="" style="whiteSpace=wrap;html=1;aspect=fixed;" parent="1" vertex="1">
          <mxGeometry x="-2090" y="-3060" width="40" height="40" as="geometry" />
        </mxCell>
        <mxCell id="WgCXtVQOdJW3vV8rvmdJ-679" value="" style="whiteSpace=wrap;html=1;aspect=fixed;" parent="1" vertex="1">
          <mxGeometry x="-2050" y="-3060" width="40" height="40" as="geometry" />
        </mxCell>
        <mxCell id="WgCXtVQOdJW3vV8rvmdJ-680" value="" style="whiteSpace=wrap;html=1;aspect=fixed;" parent="1" vertex="1">
          <mxGeometry x="-1970" y="-3060" width="40" height="40" as="geometry" />
        </mxCell>
        <mxCell id="WgCXtVQOdJW3vV8rvmdJ-681" value="" style="rounded=0;whiteSpace=wrap;html=1;" parent="1" vertex="1">
          <mxGeometry x="-2140" y="-3010" width="220" height="60" as="geometry" />
        </mxCell>
        <mxCell id="WgCXtVQOdJW3vV8rvmdJ-682" value="" style="endArrow=none;dashed=1;html=1;dashPattern=1 3;strokeWidth=3;rounded=0;exitX=1;exitY=0.5;exitDx=0;exitDy=0;entryX=0;entryY=0.5;entryDx=0;entryDy=0;" parent="1" edge="1">
          <mxGeometry width="50" height="50" relative="1" as="geometry">
            <mxPoint x="-2017" y="-2978" as="sourcePoint" />
            <mxPoint x="-1977" y="-2978" as="targetPoint" />
          </mxGeometry>
        </mxCell>
        <mxCell id="WgCXtVQOdJW3vV8rvmdJ-683" value="" style="whiteSpace=wrap;html=1;aspect=fixed;" parent="1" vertex="1">
          <mxGeometry x="-2130" y="-3000" width="40" height="40" as="geometry" />
        </mxCell>
        <mxCell id="WgCXtVQOdJW3vV8rvmdJ-684" value="" style="whiteSpace=wrap;html=1;aspect=fixed;" parent="1" vertex="1">
          <mxGeometry x="-2090" y="-3000" width="40" height="40" as="geometry" />
        </mxCell>
        <mxCell id="WgCXtVQOdJW3vV8rvmdJ-685" value="" style="whiteSpace=wrap;html=1;aspect=fixed;" parent="1" vertex="1">
          <mxGeometry x="-2050" y="-3000" width="40" height="40" as="geometry" />
        </mxCell>
        <mxCell id="WgCXtVQOdJW3vV8rvmdJ-686" value="" style="whiteSpace=wrap;html=1;aspect=fixed;" parent="1" vertex="1">
          <mxGeometry x="-1970" y="-3000" width="40" height="40" as="geometry" />
        </mxCell>
        <mxCell id="WgCXtVQOdJW3vV8rvmdJ-687" value="" style="rounded=0;whiteSpace=wrap;html=1;" parent="1" vertex="1">
          <mxGeometry x="-2140" y="-2950" width="220" height="60" as="geometry" />
        </mxCell>
        <mxCell id="WgCXtVQOdJW3vV8rvmdJ-688" value="" style="endArrow=none;dashed=1;html=1;dashPattern=1 3;strokeWidth=3;rounded=0;exitX=1;exitY=0.5;exitDx=0;exitDy=0;entryX=0;entryY=0.5;entryDx=0;entryDy=0;" parent="1" edge="1">
          <mxGeometry width="50" height="50" relative="1" as="geometry">
            <mxPoint x="-2017" y="-2918" as="sourcePoint" />
            <mxPoint x="-1977" y="-2918" as="targetPoint" />
          </mxGeometry>
        </mxCell>
        <mxCell id="WgCXtVQOdJW3vV8rvmdJ-689" value="" style="whiteSpace=wrap;html=1;aspect=fixed;" parent="1" vertex="1">
          <mxGeometry x="-2130" y="-2940" width="40" height="40" as="geometry" />
        </mxCell>
        <mxCell id="WgCXtVQOdJW3vV8rvmdJ-690" value="" style="whiteSpace=wrap;html=1;aspect=fixed;" parent="1" vertex="1">
          <mxGeometry x="-2090" y="-2940" width="40" height="40" as="geometry" />
        </mxCell>
        <mxCell id="WgCXtVQOdJW3vV8rvmdJ-691" value="" style="whiteSpace=wrap;html=1;aspect=fixed;" parent="1" vertex="1">
          <mxGeometry x="-2050" y="-2940" width="40" height="40" as="geometry" />
        </mxCell>
        <mxCell id="WgCXtVQOdJW3vV8rvmdJ-692" value="" style="whiteSpace=wrap;html=1;aspect=fixed;" parent="1" vertex="1">
          <mxGeometry x="-1970" y="-2940" width="40" height="40" as="geometry" />
        </mxCell>
        <mxCell id="WgCXtVQOdJW3vV8rvmdJ-693" value="" style="rounded=0;whiteSpace=wrap;html=1;" parent="1" vertex="1">
          <mxGeometry x="-2140" y="-2850" width="220" height="60" as="geometry" />
        </mxCell>
        <mxCell id="WgCXtVQOdJW3vV8rvmdJ-694" value="" style="endArrow=none;dashed=1;html=1;dashPattern=1 3;strokeWidth=3;rounded=0;exitX=1;exitY=0.5;exitDx=0;exitDy=0;entryX=0;entryY=0.5;entryDx=0;entryDy=0;" parent="1" edge="1">
          <mxGeometry width="50" height="50" relative="1" as="geometry">
            <mxPoint x="-2017" y="-2818" as="sourcePoint" />
            <mxPoint x="-1977" y="-2818" as="targetPoint" />
          </mxGeometry>
        </mxCell>
        <mxCell id="WgCXtVQOdJW3vV8rvmdJ-695" value="" style="whiteSpace=wrap;html=1;aspect=fixed;" parent="1" vertex="1">
          <mxGeometry x="-2130" y="-2840" width="40" height="40" as="geometry" />
        </mxCell>
        <mxCell id="WgCXtVQOdJW3vV8rvmdJ-696" value="" style="whiteSpace=wrap;html=1;aspect=fixed;" parent="1" vertex="1">
          <mxGeometry x="-2090" y="-2840" width="40" height="40" as="geometry" />
        </mxCell>
        <mxCell id="WgCXtVQOdJW3vV8rvmdJ-697" value="" style="whiteSpace=wrap;html=1;aspect=fixed;" parent="1" vertex="1">
          <mxGeometry x="-2050" y="-2840" width="40" height="40" as="geometry" />
        </mxCell>
        <mxCell id="WgCXtVQOdJW3vV8rvmdJ-698" value="" style="whiteSpace=wrap;html=1;aspect=fixed;" parent="1" vertex="1">
          <mxGeometry x="-1970" y="-2840" width="40" height="40" as="geometry" />
        </mxCell>
        <mxCell id="WgCXtVQOdJW3vV8rvmdJ-699" value="" style="rounded=0;whiteSpace=wrap;html=1;" parent="1" vertex="1">
          <mxGeometry x="-1890" y="-3080" width="240" height="300" as="geometry" />
        </mxCell>
        <mxCell id="WgCXtVQOdJW3vV8rvmdJ-700" value="" style="endArrow=none;dashed=1;html=1;dashPattern=1 3;strokeWidth=3;rounded=0;entryX=0.5;entryY=1;entryDx=0;entryDy=0;exitX=0.5;exitY=0;exitDx=0;exitDy=0;" parent="1" edge="1">
          <mxGeometry width="50" height="50" relative="1" as="geometry">
            <mxPoint x="-1771" y="-2854" as="sourcePoint" />
            <mxPoint x="-1771" y="-2894" as="targetPoint" />
          </mxGeometry>
        </mxCell>
        <mxCell id="WgCXtVQOdJW3vV8rvmdJ-701" value="" style="rounded=0;whiteSpace=wrap;html=1;" parent="1" vertex="1">
          <mxGeometry x="-1880" y="-3070" width="220" height="60" as="geometry" />
        </mxCell>
        <mxCell id="WgCXtVQOdJW3vV8rvmdJ-702" value="" style="endArrow=none;dashed=1;html=1;dashPattern=1 3;strokeWidth=3;rounded=0;exitX=1;exitY=0.5;exitDx=0;exitDy=0;entryX=0;entryY=0.5;entryDx=0;entryDy=0;" parent="1" edge="1">
          <mxGeometry width="50" height="50" relative="1" as="geometry">
            <mxPoint x="-1757" y="-3038" as="sourcePoint" />
            <mxPoint x="-1717" y="-3038" as="targetPoint" />
          </mxGeometry>
        </mxCell>
        <mxCell id="WgCXtVQOdJW3vV8rvmdJ-703" value="" style="whiteSpace=wrap;html=1;aspect=fixed;" parent="1" vertex="1">
          <mxGeometry x="-1870" y="-3060" width="40" height="40" as="geometry" />
        </mxCell>
        <mxCell id="WgCXtVQOdJW3vV8rvmdJ-704" value="" style="whiteSpace=wrap;html=1;aspect=fixed;" parent="1" vertex="1">
          <mxGeometry x="-1830" y="-3060" width="40" height="40" as="geometry" />
        </mxCell>
        <mxCell id="WgCXtVQOdJW3vV8rvmdJ-705" value="" style="whiteSpace=wrap;html=1;aspect=fixed;" parent="1" vertex="1">
          <mxGeometry x="-1790" y="-3060" width="40" height="40" as="geometry" />
        </mxCell>
        <mxCell id="WgCXtVQOdJW3vV8rvmdJ-706" value="" style="whiteSpace=wrap;html=1;aspect=fixed;" parent="1" vertex="1">
          <mxGeometry x="-1710" y="-3060" width="40" height="40" as="geometry" />
        </mxCell>
        <mxCell id="WgCXtVQOdJW3vV8rvmdJ-707" value="" style="rounded=0;whiteSpace=wrap;html=1;" parent="1" vertex="1">
          <mxGeometry x="-1880" y="-3010" width="220" height="60" as="geometry" />
        </mxCell>
        <mxCell id="WgCXtVQOdJW3vV8rvmdJ-708" value="" style="endArrow=none;dashed=1;html=1;dashPattern=1 3;strokeWidth=3;rounded=0;exitX=1;exitY=0.5;exitDx=0;exitDy=0;entryX=0;entryY=0.5;entryDx=0;entryDy=0;" parent="1" edge="1">
          <mxGeometry width="50" height="50" relative="1" as="geometry">
            <mxPoint x="-1757" y="-2978" as="sourcePoint" />
            <mxPoint x="-1717" y="-2978" as="targetPoint" />
          </mxGeometry>
        </mxCell>
        <mxCell id="WgCXtVQOdJW3vV8rvmdJ-709" value="" style="whiteSpace=wrap;html=1;aspect=fixed;" parent="1" vertex="1">
          <mxGeometry x="-1870" y="-3000" width="40" height="40" as="geometry" />
        </mxCell>
        <mxCell id="WgCXtVQOdJW3vV8rvmdJ-710" value="" style="whiteSpace=wrap;html=1;aspect=fixed;" parent="1" vertex="1">
          <mxGeometry x="-1830" y="-3000" width="40" height="40" as="geometry" />
        </mxCell>
        <mxCell id="WgCXtVQOdJW3vV8rvmdJ-711" value="" style="whiteSpace=wrap;html=1;aspect=fixed;" parent="1" vertex="1">
          <mxGeometry x="-1790" y="-3000" width="40" height="40" as="geometry" />
        </mxCell>
        <mxCell id="WgCXtVQOdJW3vV8rvmdJ-712" value="" style="whiteSpace=wrap;html=1;aspect=fixed;" parent="1" vertex="1">
          <mxGeometry x="-1710" y="-3000" width="40" height="40" as="geometry" />
        </mxCell>
        <mxCell id="WgCXtVQOdJW3vV8rvmdJ-713" value="" style="rounded=0;whiteSpace=wrap;html=1;" parent="1" vertex="1">
          <mxGeometry x="-1880" y="-2950" width="220" height="60" as="geometry" />
        </mxCell>
        <mxCell id="WgCXtVQOdJW3vV8rvmdJ-714" value="" style="endArrow=none;dashed=1;html=1;dashPattern=1 3;strokeWidth=3;rounded=0;exitX=1;exitY=0.5;exitDx=0;exitDy=0;entryX=0;entryY=0.5;entryDx=0;entryDy=0;" parent="1" edge="1">
          <mxGeometry width="50" height="50" relative="1" as="geometry">
            <mxPoint x="-1757" y="-2918" as="sourcePoint" />
            <mxPoint x="-1717" y="-2918" as="targetPoint" />
          </mxGeometry>
        </mxCell>
        <mxCell id="WgCXtVQOdJW3vV8rvmdJ-715" value="" style="whiteSpace=wrap;html=1;aspect=fixed;" parent="1" vertex="1">
          <mxGeometry x="-1870" y="-2940" width="40" height="40" as="geometry" />
        </mxCell>
        <mxCell id="WgCXtVQOdJW3vV8rvmdJ-716" value="" style="whiteSpace=wrap;html=1;aspect=fixed;" parent="1" vertex="1">
          <mxGeometry x="-1830" y="-2940" width="40" height="40" as="geometry" />
        </mxCell>
        <mxCell id="WgCXtVQOdJW3vV8rvmdJ-717" value="" style="whiteSpace=wrap;html=1;aspect=fixed;" parent="1" vertex="1">
          <mxGeometry x="-1790" y="-2940" width="40" height="40" as="geometry" />
        </mxCell>
        <mxCell id="WgCXtVQOdJW3vV8rvmdJ-718" value="" style="whiteSpace=wrap;html=1;aspect=fixed;" parent="1" vertex="1">
          <mxGeometry x="-1710" y="-2940" width="40" height="40" as="geometry" />
        </mxCell>
        <mxCell id="WgCXtVQOdJW3vV8rvmdJ-719" value="" style="rounded=0;whiteSpace=wrap;html=1;" parent="1" vertex="1">
          <mxGeometry x="-1880" y="-2850" width="220" height="60" as="geometry" />
        </mxCell>
        <mxCell id="WgCXtVQOdJW3vV8rvmdJ-720" value="" style="endArrow=none;dashed=1;html=1;dashPattern=1 3;strokeWidth=3;rounded=0;exitX=1;exitY=0.5;exitDx=0;exitDy=0;entryX=0;entryY=0.5;entryDx=0;entryDy=0;" parent="1" edge="1">
          <mxGeometry width="50" height="50" relative="1" as="geometry">
            <mxPoint x="-1757" y="-2818" as="sourcePoint" />
            <mxPoint x="-1717" y="-2818" as="targetPoint" />
          </mxGeometry>
        </mxCell>
        <mxCell id="WgCXtVQOdJW3vV8rvmdJ-721" value="" style="whiteSpace=wrap;html=1;aspect=fixed;" parent="1" vertex="1">
          <mxGeometry x="-1870" y="-2840" width="40" height="40" as="geometry" />
        </mxCell>
        <mxCell id="WgCXtVQOdJW3vV8rvmdJ-722" value="" style="whiteSpace=wrap;html=1;aspect=fixed;" parent="1" vertex="1">
          <mxGeometry x="-1830" y="-2840" width="40" height="40" as="geometry" />
        </mxCell>
        <mxCell id="WgCXtVQOdJW3vV8rvmdJ-723" value="" style="whiteSpace=wrap;html=1;aspect=fixed;" parent="1" vertex="1">
          <mxGeometry x="-1790" y="-2840" width="40" height="40" as="geometry" />
        </mxCell>
        <mxCell id="WgCXtVQOdJW3vV8rvmdJ-724" value="" style="whiteSpace=wrap;html=1;aspect=fixed;" parent="1" vertex="1">
          <mxGeometry x="-1710" y="-2840" width="40" height="40" as="geometry" />
        </mxCell>
        <mxCell id="WgCXtVQOdJW3vV8rvmdJ-725" value="" style="rounded=0;whiteSpace=wrap;html=1;" parent="1" vertex="1">
          <mxGeometry x="-1550" y="-3400" width="240" height="300" as="geometry" />
        </mxCell>
        <mxCell id="WgCXtVQOdJW3vV8rvmdJ-726" value="" style="endArrow=none;dashed=1;html=1;dashPattern=1 3;strokeWidth=3;rounded=0;entryX=0.5;entryY=1;entryDx=0;entryDy=0;exitX=0.5;exitY=0;exitDx=0;exitDy=0;" parent="1" edge="1">
          <mxGeometry width="50" height="50" relative="1" as="geometry">
            <mxPoint x="-1431" y="-3174" as="sourcePoint" />
            <mxPoint x="-1431" y="-3214" as="targetPoint" />
          </mxGeometry>
        </mxCell>
        <mxCell id="WgCXtVQOdJW3vV8rvmdJ-727" value="" style="rounded=0;whiteSpace=wrap;html=1;" parent="1" vertex="1">
          <mxGeometry x="-1540" y="-3390" width="220" height="60" as="geometry" />
        </mxCell>
        <mxCell id="WgCXtVQOdJW3vV8rvmdJ-728" value="" style="endArrow=none;dashed=1;html=1;dashPattern=1 3;strokeWidth=3;rounded=0;exitX=1;exitY=0.5;exitDx=0;exitDy=0;entryX=0;entryY=0.5;entryDx=0;entryDy=0;" parent="1" edge="1">
          <mxGeometry width="50" height="50" relative="1" as="geometry">
            <mxPoint x="-1417" y="-3358" as="sourcePoint" />
            <mxPoint x="-1377" y="-3358" as="targetPoint" />
          </mxGeometry>
        </mxCell>
        <mxCell id="WgCXtVQOdJW3vV8rvmdJ-729" value="" style="whiteSpace=wrap;html=1;aspect=fixed;" parent="1" vertex="1">
          <mxGeometry x="-1530" y="-3380" width="40" height="40" as="geometry" />
        </mxCell>
        <mxCell id="WgCXtVQOdJW3vV8rvmdJ-730" value="" style="whiteSpace=wrap;html=1;aspect=fixed;" parent="1" vertex="1">
          <mxGeometry x="-1490" y="-3380" width="40" height="40" as="geometry" />
        </mxCell>
        <mxCell id="WgCXtVQOdJW3vV8rvmdJ-731" value="" style="whiteSpace=wrap;html=1;aspect=fixed;" parent="1" vertex="1">
          <mxGeometry x="-1450" y="-3380" width="40" height="40" as="geometry" />
        </mxCell>
        <mxCell id="WgCXtVQOdJW3vV8rvmdJ-732" value="" style="whiteSpace=wrap;html=1;aspect=fixed;" parent="1" vertex="1">
          <mxGeometry x="-1370" y="-3380" width="40" height="40" as="geometry" />
        </mxCell>
        <mxCell id="WgCXtVQOdJW3vV8rvmdJ-733" value="" style="rounded=0;whiteSpace=wrap;html=1;" parent="1" vertex="1">
          <mxGeometry x="-1540" y="-3330" width="220" height="60" as="geometry" />
        </mxCell>
        <mxCell id="WgCXtVQOdJW3vV8rvmdJ-734" value="" style="endArrow=none;dashed=1;html=1;dashPattern=1 3;strokeWidth=3;rounded=0;exitX=1;exitY=0.5;exitDx=0;exitDy=0;entryX=0;entryY=0.5;entryDx=0;entryDy=0;" parent="1" edge="1">
          <mxGeometry width="50" height="50" relative="1" as="geometry">
            <mxPoint x="-1417" y="-3298" as="sourcePoint" />
            <mxPoint x="-1377" y="-3298" as="targetPoint" />
          </mxGeometry>
        </mxCell>
        <mxCell id="WgCXtVQOdJW3vV8rvmdJ-735" value="" style="whiteSpace=wrap;html=1;aspect=fixed;" parent="1" vertex="1">
          <mxGeometry x="-1530" y="-3320" width="40" height="40" as="geometry" />
        </mxCell>
        <mxCell id="WgCXtVQOdJW3vV8rvmdJ-736" value="" style="whiteSpace=wrap;html=1;aspect=fixed;" parent="1" vertex="1">
          <mxGeometry x="-1490" y="-3320" width="40" height="40" as="geometry" />
        </mxCell>
        <mxCell id="WgCXtVQOdJW3vV8rvmdJ-737" value="" style="whiteSpace=wrap;html=1;aspect=fixed;" parent="1" vertex="1">
          <mxGeometry x="-1450" y="-3320" width="40" height="40" as="geometry" />
        </mxCell>
        <mxCell id="WgCXtVQOdJW3vV8rvmdJ-738" value="" style="whiteSpace=wrap;html=1;aspect=fixed;" parent="1" vertex="1">
          <mxGeometry x="-1370" y="-3320" width="40" height="40" as="geometry" />
        </mxCell>
        <mxCell id="WgCXtVQOdJW3vV8rvmdJ-739" value="" style="rounded=0;whiteSpace=wrap;html=1;" parent="1" vertex="1">
          <mxGeometry x="-1540" y="-3270" width="220" height="60" as="geometry" />
        </mxCell>
        <mxCell id="WgCXtVQOdJW3vV8rvmdJ-740" value="" style="endArrow=none;dashed=1;html=1;dashPattern=1 3;strokeWidth=3;rounded=0;exitX=1;exitY=0.5;exitDx=0;exitDy=0;entryX=0;entryY=0.5;entryDx=0;entryDy=0;" parent="1" edge="1">
          <mxGeometry width="50" height="50" relative="1" as="geometry">
            <mxPoint x="-1417" y="-3238" as="sourcePoint" />
            <mxPoint x="-1377" y="-3238" as="targetPoint" />
          </mxGeometry>
        </mxCell>
        <mxCell id="WgCXtVQOdJW3vV8rvmdJ-741" value="" style="whiteSpace=wrap;html=1;aspect=fixed;" parent="1" vertex="1">
          <mxGeometry x="-1530" y="-3260" width="40" height="40" as="geometry" />
        </mxCell>
        <mxCell id="WgCXtVQOdJW3vV8rvmdJ-742" value="" style="whiteSpace=wrap;html=1;aspect=fixed;" parent="1" vertex="1">
          <mxGeometry x="-1490" y="-3260" width="40" height="40" as="geometry" />
        </mxCell>
        <mxCell id="WgCXtVQOdJW3vV8rvmdJ-743" value="" style="whiteSpace=wrap;html=1;aspect=fixed;" parent="1" vertex="1">
          <mxGeometry x="-1450" y="-3260" width="40" height="40" as="geometry" />
        </mxCell>
        <mxCell id="WgCXtVQOdJW3vV8rvmdJ-744" value="" style="whiteSpace=wrap;html=1;aspect=fixed;" parent="1" vertex="1">
          <mxGeometry x="-1370" y="-3260" width="40" height="40" as="geometry" />
        </mxCell>
        <mxCell id="WgCXtVQOdJW3vV8rvmdJ-745" value="" style="rounded=0;whiteSpace=wrap;html=1;" parent="1" vertex="1">
          <mxGeometry x="-1540" y="-3170" width="220" height="60" as="geometry" />
        </mxCell>
        <mxCell id="WgCXtVQOdJW3vV8rvmdJ-746" value="" style="endArrow=none;dashed=1;html=1;dashPattern=1 3;strokeWidth=3;rounded=0;exitX=1;exitY=0.5;exitDx=0;exitDy=0;entryX=0;entryY=0.5;entryDx=0;entryDy=0;" parent="1" edge="1">
          <mxGeometry width="50" height="50" relative="1" as="geometry">
            <mxPoint x="-1417" y="-3138" as="sourcePoint" />
            <mxPoint x="-1377" y="-3138" as="targetPoint" />
          </mxGeometry>
        </mxCell>
        <mxCell id="WgCXtVQOdJW3vV8rvmdJ-747" value="" style="whiteSpace=wrap;html=1;aspect=fixed;" parent="1" vertex="1">
          <mxGeometry x="-1530" y="-3160" width="40" height="40" as="geometry" />
        </mxCell>
        <mxCell id="WgCXtVQOdJW3vV8rvmdJ-748" value="" style="whiteSpace=wrap;html=1;aspect=fixed;" parent="1" vertex="1">
          <mxGeometry x="-1490" y="-3160" width="40" height="40" as="geometry" />
        </mxCell>
        <mxCell id="WgCXtVQOdJW3vV8rvmdJ-749" value="" style="whiteSpace=wrap;html=1;aspect=fixed;" parent="1" vertex="1">
          <mxGeometry x="-1450" y="-3160" width="40" height="40" as="geometry" />
        </mxCell>
        <mxCell id="WgCXtVQOdJW3vV8rvmdJ-750" value="" style="whiteSpace=wrap;html=1;aspect=fixed;" parent="1" vertex="1">
          <mxGeometry x="-1370" y="-3160" width="40" height="40" as="geometry" />
        </mxCell>
        <mxCell id="WgCXtVQOdJW3vV8rvmdJ-751" value="" style="rounded=0;whiteSpace=wrap;html=1;" parent="1" vertex="1">
          <mxGeometry x="-1550" y="-3080" width="240" height="300" as="geometry" />
        </mxCell>
        <mxCell id="WgCXtVQOdJW3vV8rvmdJ-752" value="" style="endArrow=none;dashed=1;html=1;dashPattern=1 3;strokeWidth=3;rounded=0;entryX=0.5;entryY=1;entryDx=0;entryDy=0;exitX=0.5;exitY=0;exitDx=0;exitDy=0;" parent="1" edge="1">
          <mxGeometry width="50" height="50" relative="1" as="geometry">
            <mxPoint x="-1431" y="-2854" as="sourcePoint" />
            <mxPoint x="-1431" y="-2894" as="targetPoint" />
          </mxGeometry>
        </mxCell>
        <mxCell id="WgCXtVQOdJW3vV8rvmdJ-753" value="" style="rounded=0;whiteSpace=wrap;html=1;" parent="1" vertex="1">
          <mxGeometry x="-1540" y="-3070" width="220" height="60" as="geometry" />
        </mxCell>
        <mxCell id="WgCXtVQOdJW3vV8rvmdJ-754" value="" style="endArrow=none;dashed=1;html=1;dashPattern=1 3;strokeWidth=3;rounded=0;exitX=1;exitY=0.5;exitDx=0;exitDy=0;entryX=0;entryY=0.5;entryDx=0;entryDy=0;" parent="1" edge="1">
          <mxGeometry width="50" height="50" relative="1" as="geometry">
            <mxPoint x="-1417" y="-3038" as="sourcePoint" />
            <mxPoint x="-1377" y="-3038" as="targetPoint" />
          </mxGeometry>
        </mxCell>
        <mxCell id="WgCXtVQOdJW3vV8rvmdJ-755" value="" style="whiteSpace=wrap;html=1;aspect=fixed;" parent="1" vertex="1">
          <mxGeometry x="-1530" y="-3060" width="40" height="40" as="geometry" />
        </mxCell>
        <mxCell id="WgCXtVQOdJW3vV8rvmdJ-756" value="" style="whiteSpace=wrap;html=1;aspect=fixed;" parent="1" vertex="1">
          <mxGeometry x="-1490" y="-3060" width="40" height="40" as="geometry" />
        </mxCell>
        <mxCell id="WgCXtVQOdJW3vV8rvmdJ-757" value="" style="whiteSpace=wrap;html=1;aspect=fixed;" parent="1" vertex="1">
          <mxGeometry x="-1450" y="-3060" width="40" height="40" as="geometry" />
        </mxCell>
        <mxCell id="WgCXtVQOdJW3vV8rvmdJ-758" value="" style="whiteSpace=wrap;html=1;aspect=fixed;" parent="1" vertex="1">
          <mxGeometry x="-1370" y="-3060" width="40" height="40" as="geometry" />
        </mxCell>
        <mxCell id="WgCXtVQOdJW3vV8rvmdJ-759" value="" style="rounded=0;whiteSpace=wrap;html=1;" parent="1" vertex="1">
          <mxGeometry x="-1540" y="-3010" width="220" height="60" as="geometry" />
        </mxCell>
        <mxCell id="WgCXtVQOdJW3vV8rvmdJ-760" value="" style="endArrow=none;dashed=1;html=1;dashPattern=1 3;strokeWidth=3;rounded=0;exitX=1;exitY=0.5;exitDx=0;exitDy=0;entryX=0;entryY=0.5;entryDx=0;entryDy=0;" parent="1" edge="1">
          <mxGeometry width="50" height="50" relative="1" as="geometry">
            <mxPoint x="-1417" y="-2978" as="sourcePoint" />
            <mxPoint x="-1377" y="-2978" as="targetPoint" />
          </mxGeometry>
        </mxCell>
        <mxCell id="WgCXtVQOdJW3vV8rvmdJ-761" value="" style="whiteSpace=wrap;html=1;aspect=fixed;" parent="1" vertex="1">
          <mxGeometry x="-1530" y="-3000" width="40" height="40" as="geometry" />
        </mxCell>
        <mxCell id="WgCXtVQOdJW3vV8rvmdJ-762" value="" style="whiteSpace=wrap;html=1;aspect=fixed;" parent="1" vertex="1">
          <mxGeometry x="-1490" y="-3000" width="40" height="40" as="geometry" />
        </mxCell>
        <mxCell id="WgCXtVQOdJW3vV8rvmdJ-763" value="" style="whiteSpace=wrap;html=1;aspect=fixed;" parent="1" vertex="1">
          <mxGeometry x="-1450" y="-3000" width="40" height="40" as="geometry" />
        </mxCell>
        <mxCell id="WgCXtVQOdJW3vV8rvmdJ-764" value="" style="whiteSpace=wrap;html=1;aspect=fixed;" parent="1" vertex="1">
          <mxGeometry x="-1370" y="-3000" width="40" height="40" as="geometry" />
        </mxCell>
        <mxCell id="WgCXtVQOdJW3vV8rvmdJ-765" value="" style="rounded=0;whiteSpace=wrap;html=1;" parent="1" vertex="1">
          <mxGeometry x="-1540" y="-2950" width="220" height="60" as="geometry" />
        </mxCell>
        <mxCell id="WgCXtVQOdJW3vV8rvmdJ-766" value="" style="endArrow=none;dashed=1;html=1;dashPattern=1 3;strokeWidth=3;rounded=0;exitX=1;exitY=0.5;exitDx=0;exitDy=0;entryX=0;entryY=0.5;entryDx=0;entryDy=0;" parent="1" edge="1">
          <mxGeometry width="50" height="50" relative="1" as="geometry">
            <mxPoint x="-1417" y="-2918" as="sourcePoint" />
            <mxPoint x="-1377" y="-2918" as="targetPoint" />
          </mxGeometry>
        </mxCell>
        <mxCell id="WgCXtVQOdJW3vV8rvmdJ-767" value="" style="whiteSpace=wrap;html=1;aspect=fixed;" parent="1" vertex="1">
          <mxGeometry x="-1530" y="-2940" width="40" height="40" as="geometry" />
        </mxCell>
        <mxCell id="WgCXtVQOdJW3vV8rvmdJ-768" value="" style="whiteSpace=wrap;html=1;aspect=fixed;" parent="1" vertex="1">
          <mxGeometry x="-1490" y="-2940" width="40" height="40" as="geometry" />
        </mxCell>
        <mxCell id="WgCXtVQOdJW3vV8rvmdJ-769" value="" style="whiteSpace=wrap;html=1;aspect=fixed;" parent="1" vertex="1">
          <mxGeometry x="-1450" y="-2940" width="40" height="40" as="geometry" />
        </mxCell>
        <mxCell id="WgCXtVQOdJW3vV8rvmdJ-770" value="" style="whiteSpace=wrap;html=1;aspect=fixed;" parent="1" vertex="1">
          <mxGeometry x="-1370" y="-2940" width="40" height="40" as="geometry" />
        </mxCell>
        <mxCell id="WgCXtVQOdJW3vV8rvmdJ-771" value="" style="rounded=0;whiteSpace=wrap;html=1;" parent="1" vertex="1">
          <mxGeometry x="-1540" y="-2850" width="220" height="60" as="geometry" />
        </mxCell>
        <mxCell id="WgCXtVQOdJW3vV8rvmdJ-772" value="" style="endArrow=none;dashed=1;html=1;dashPattern=1 3;strokeWidth=3;rounded=0;exitX=1;exitY=0.5;exitDx=0;exitDy=0;entryX=0;entryY=0.5;entryDx=0;entryDy=0;" parent="1" edge="1">
          <mxGeometry width="50" height="50" relative="1" as="geometry">
            <mxPoint x="-1417" y="-2818" as="sourcePoint" />
            <mxPoint x="-1377" y="-2818" as="targetPoint" />
          </mxGeometry>
        </mxCell>
        <mxCell id="WgCXtVQOdJW3vV8rvmdJ-773" value="" style="whiteSpace=wrap;html=1;aspect=fixed;" parent="1" vertex="1">
          <mxGeometry x="-1530" y="-2840" width="40" height="40" as="geometry" />
        </mxCell>
        <mxCell id="WgCXtVQOdJW3vV8rvmdJ-774" value="" style="whiteSpace=wrap;html=1;aspect=fixed;" parent="1" vertex="1">
          <mxGeometry x="-1490" y="-2840" width="40" height="40" as="geometry" />
        </mxCell>
        <mxCell id="WgCXtVQOdJW3vV8rvmdJ-775" value="" style="whiteSpace=wrap;html=1;aspect=fixed;" parent="1" vertex="1">
          <mxGeometry x="-1450" y="-2840" width="40" height="40" as="geometry" />
        </mxCell>
        <mxCell id="WgCXtVQOdJW3vV8rvmdJ-776" value="" style="whiteSpace=wrap;html=1;aspect=fixed;" parent="1" vertex="1">
          <mxGeometry x="-1370" y="-2840" width="40" height="40" as="geometry" />
        </mxCell>
        <mxCell id="WgCXtVQOdJW3vV8rvmdJ-777" value="" style="rounded=0;whiteSpace=wrap;html=1;" parent="1" vertex="1">
          <mxGeometry x="-2150" y="-2680" width="240" height="300" as="geometry" />
        </mxCell>
        <mxCell id="WgCXtVQOdJW3vV8rvmdJ-778" value="" style="endArrow=none;dashed=1;html=1;dashPattern=1 3;strokeWidth=3;rounded=0;entryX=0.5;entryY=1;entryDx=0;entryDy=0;exitX=0.5;exitY=0;exitDx=0;exitDy=0;" parent="1" edge="1">
          <mxGeometry width="50" height="50" relative="1" as="geometry">
            <mxPoint x="-2031" y="-2454" as="sourcePoint" />
            <mxPoint x="-2031" y="-2494" as="targetPoint" />
          </mxGeometry>
        </mxCell>
        <mxCell id="WgCXtVQOdJW3vV8rvmdJ-779" value="" style="rounded=0;whiteSpace=wrap;html=1;" parent="1" vertex="1">
          <mxGeometry x="-2140" y="-2670" width="220" height="60" as="geometry" />
        </mxCell>
        <mxCell id="WgCXtVQOdJW3vV8rvmdJ-780" value="" style="endArrow=none;dashed=1;html=1;dashPattern=1 3;strokeWidth=3;rounded=0;exitX=1;exitY=0.5;exitDx=0;exitDy=0;entryX=0;entryY=0.5;entryDx=0;entryDy=0;" parent="1" edge="1">
          <mxGeometry width="50" height="50" relative="1" as="geometry">
            <mxPoint x="-2017" y="-2638" as="sourcePoint" />
            <mxPoint x="-1977" y="-2638" as="targetPoint" />
          </mxGeometry>
        </mxCell>
        <mxCell id="WgCXtVQOdJW3vV8rvmdJ-781" value="" style="whiteSpace=wrap;html=1;aspect=fixed;" parent="1" vertex="1">
          <mxGeometry x="-2130" y="-2660" width="40" height="40" as="geometry" />
        </mxCell>
        <mxCell id="WgCXtVQOdJW3vV8rvmdJ-782" value="" style="whiteSpace=wrap;html=1;aspect=fixed;" parent="1" vertex="1">
          <mxGeometry x="-2090" y="-2660" width="40" height="40" as="geometry" />
        </mxCell>
        <mxCell id="WgCXtVQOdJW3vV8rvmdJ-783" value="" style="whiteSpace=wrap;html=1;aspect=fixed;" parent="1" vertex="1">
          <mxGeometry x="-2050" y="-2660" width="40" height="40" as="geometry" />
        </mxCell>
        <mxCell id="WgCXtVQOdJW3vV8rvmdJ-784" value="" style="whiteSpace=wrap;html=1;aspect=fixed;" parent="1" vertex="1">
          <mxGeometry x="-1970" y="-2660" width="40" height="40" as="geometry" />
        </mxCell>
        <mxCell id="WgCXtVQOdJW3vV8rvmdJ-785" value="" style="rounded=0;whiteSpace=wrap;html=1;" parent="1" vertex="1">
          <mxGeometry x="-2140" y="-2610" width="220" height="60" as="geometry" />
        </mxCell>
        <mxCell id="WgCXtVQOdJW3vV8rvmdJ-786" value="" style="endArrow=none;dashed=1;html=1;dashPattern=1 3;strokeWidth=3;rounded=0;exitX=1;exitY=0.5;exitDx=0;exitDy=0;entryX=0;entryY=0.5;entryDx=0;entryDy=0;" parent="1" edge="1">
          <mxGeometry width="50" height="50" relative="1" as="geometry">
            <mxPoint x="-2017" y="-2578" as="sourcePoint" />
            <mxPoint x="-1977" y="-2578" as="targetPoint" />
          </mxGeometry>
        </mxCell>
        <mxCell id="WgCXtVQOdJW3vV8rvmdJ-787" value="" style="whiteSpace=wrap;html=1;aspect=fixed;" parent="1" vertex="1">
          <mxGeometry x="-2130" y="-2600" width="40" height="40" as="geometry" />
        </mxCell>
        <mxCell id="WgCXtVQOdJW3vV8rvmdJ-788" value="" style="whiteSpace=wrap;html=1;aspect=fixed;" parent="1" vertex="1">
          <mxGeometry x="-2090" y="-2600" width="40" height="40" as="geometry" />
        </mxCell>
        <mxCell id="WgCXtVQOdJW3vV8rvmdJ-789" value="" style="whiteSpace=wrap;html=1;aspect=fixed;" parent="1" vertex="1">
          <mxGeometry x="-2050" y="-2600" width="40" height="40" as="geometry" />
        </mxCell>
        <mxCell id="WgCXtVQOdJW3vV8rvmdJ-790" value="" style="whiteSpace=wrap;html=1;aspect=fixed;" parent="1" vertex="1">
          <mxGeometry x="-1970" y="-2600" width="40" height="40" as="geometry" />
        </mxCell>
        <mxCell id="WgCXtVQOdJW3vV8rvmdJ-791" value="" style="rounded=0;whiteSpace=wrap;html=1;" parent="1" vertex="1">
          <mxGeometry x="-2140" y="-2550" width="220" height="60" as="geometry" />
        </mxCell>
        <mxCell id="WgCXtVQOdJW3vV8rvmdJ-792" value="" style="endArrow=none;dashed=1;html=1;dashPattern=1 3;strokeWidth=3;rounded=0;exitX=1;exitY=0.5;exitDx=0;exitDy=0;entryX=0;entryY=0.5;entryDx=0;entryDy=0;" parent="1" edge="1">
          <mxGeometry width="50" height="50" relative="1" as="geometry">
            <mxPoint x="-2017" y="-2518" as="sourcePoint" />
            <mxPoint x="-1977" y="-2518" as="targetPoint" />
          </mxGeometry>
        </mxCell>
        <mxCell id="WgCXtVQOdJW3vV8rvmdJ-793" value="" style="whiteSpace=wrap;html=1;aspect=fixed;" parent="1" vertex="1">
          <mxGeometry x="-2130" y="-2540" width="40" height="40" as="geometry" />
        </mxCell>
        <mxCell id="WgCXtVQOdJW3vV8rvmdJ-794" value="" style="whiteSpace=wrap;html=1;aspect=fixed;" parent="1" vertex="1">
          <mxGeometry x="-2090" y="-2540" width="40" height="40" as="geometry" />
        </mxCell>
        <mxCell id="WgCXtVQOdJW3vV8rvmdJ-795" value="" style="whiteSpace=wrap;html=1;aspect=fixed;" parent="1" vertex="1">
          <mxGeometry x="-2050" y="-2540" width="40" height="40" as="geometry" />
        </mxCell>
        <mxCell id="WgCXtVQOdJW3vV8rvmdJ-796" value="" style="whiteSpace=wrap;html=1;aspect=fixed;" parent="1" vertex="1">
          <mxGeometry x="-1970" y="-2540" width="40" height="40" as="geometry" />
        </mxCell>
        <mxCell id="WgCXtVQOdJW3vV8rvmdJ-797" value="" style="rounded=0;whiteSpace=wrap;html=1;" parent="1" vertex="1">
          <mxGeometry x="-2140" y="-2450" width="220" height="60" as="geometry" />
        </mxCell>
        <mxCell id="WgCXtVQOdJW3vV8rvmdJ-798" value="" style="endArrow=none;dashed=1;html=1;dashPattern=1 3;strokeWidth=3;rounded=0;exitX=1;exitY=0.5;exitDx=0;exitDy=0;entryX=0;entryY=0.5;entryDx=0;entryDy=0;" parent="1" edge="1">
          <mxGeometry width="50" height="50" relative="1" as="geometry">
            <mxPoint x="-2017" y="-2418" as="sourcePoint" />
            <mxPoint x="-1977" y="-2418" as="targetPoint" />
          </mxGeometry>
        </mxCell>
        <mxCell id="WgCXtVQOdJW3vV8rvmdJ-799" value="" style="whiteSpace=wrap;html=1;aspect=fixed;" parent="1" vertex="1">
          <mxGeometry x="-2130" y="-2440" width="40" height="40" as="geometry" />
        </mxCell>
        <mxCell id="WgCXtVQOdJW3vV8rvmdJ-800" value="" style="whiteSpace=wrap;html=1;aspect=fixed;" parent="1" vertex="1">
          <mxGeometry x="-2090" y="-2440" width="40" height="40" as="geometry" />
        </mxCell>
        <mxCell id="WgCXtVQOdJW3vV8rvmdJ-801" value="" style="whiteSpace=wrap;html=1;aspect=fixed;" parent="1" vertex="1">
          <mxGeometry x="-2050" y="-2440" width="40" height="40" as="geometry" />
        </mxCell>
        <mxCell id="WgCXtVQOdJW3vV8rvmdJ-802" value="" style="whiteSpace=wrap;html=1;aspect=fixed;" parent="1" vertex="1">
          <mxGeometry x="-1970" y="-2440" width="40" height="40" as="geometry" />
        </mxCell>
        <mxCell id="WgCXtVQOdJW3vV8rvmdJ-803" value="" style="rounded=0;whiteSpace=wrap;html=1;" parent="1" vertex="1">
          <mxGeometry x="-1890" y="-2680" width="240" height="300" as="geometry" />
        </mxCell>
        <mxCell id="WgCXtVQOdJW3vV8rvmdJ-804" value="" style="endArrow=none;dashed=1;html=1;dashPattern=1 3;strokeWidth=3;rounded=0;entryX=0.5;entryY=1;entryDx=0;entryDy=0;exitX=0.5;exitY=0;exitDx=0;exitDy=0;" parent="1" edge="1">
          <mxGeometry width="50" height="50" relative="1" as="geometry">
            <mxPoint x="-1771" y="-2454" as="sourcePoint" />
            <mxPoint x="-1771" y="-2494" as="targetPoint" />
          </mxGeometry>
        </mxCell>
        <mxCell id="WgCXtVQOdJW3vV8rvmdJ-805" value="" style="rounded=0;whiteSpace=wrap;html=1;" parent="1" vertex="1">
          <mxGeometry x="-1880" y="-2670" width="220" height="60" as="geometry" />
        </mxCell>
        <mxCell id="WgCXtVQOdJW3vV8rvmdJ-806" value="" style="endArrow=none;dashed=1;html=1;dashPattern=1 3;strokeWidth=3;rounded=0;exitX=1;exitY=0.5;exitDx=0;exitDy=0;entryX=0;entryY=0.5;entryDx=0;entryDy=0;" parent="1" edge="1">
          <mxGeometry width="50" height="50" relative="1" as="geometry">
            <mxPoint x="-1757" y="-2638" as="sourcePoint" />
            <mxPoint x="-1717" y="-2638" as="targetPoint" />
          </mxGeometry>
        </mxCell>
        <mxCell id="WgCXtVQOdJW3vV8rvmdJ-807" value="" style="whiteSpace=wrap;html=1;aspect=fixed;" parent="1" vertex="1">
          <mxGeometry x="-1870" y="-2660" width="40" height="40" as="geometry" />
        </mxCell>
        <mxCell id="WgCXtVQOdJW3vV8rvmdJ-808" value="" style="whiteSpace=wrap;html=1;aspect=fixed;" parent="1" vertex="1">
          <mxGeometry x="-1830" y="-2660" width="40" height="40" as="geometry" />
        </mxCell>
        <mxCell id="WgCXtVQOdJW3vV8rvmdJ-809" value="" style="whiteSpace=wrap;html=1;aspect=fixed;" parent="1" vertex="1">
          <mxGeometry x="-1790" y="-2660" width="40" height="40" as="geometry" />
        </mxCell>
        <mxCell id="WgCXtVQOdJW3vV8rvmdJ-810" value="" style="whiteSpace=wrap;html=1;aspect=fixed;" parent="1" vertex="1">
          <mxGeometry x="-1710" y="-2660" width="40" height="40" as="geometry" />
        </mxCell>
        <mxCell id="WgCXtVQOdJW3vV8rvmdJ-811" value="" style="rounded=0;whiteSpace=wrap;html=1;" parent="1" vertex="1">
          <mxGeometry x="-1880" y="-2610" width="220" height="60" as="geometry" />
        </mxCell>
        <mxCell id="WgCXtVQOdJW3vV8rvmdJ-812" value="" style="endArrow=none;dashed=1;html=1;dashPattern=1 3;strokeWidth=3;rounded=0;exitX=1;exitY=0.5;exitDx=0;exitDy=0;entryX=0;entryY=0.5;entryDx=0;entryDy=0;" parent="1" edge="1">
          <mxGeometry width="50" height="50" relative="1" as="geometry">
            <mxPoint x="-1757" y="-2578" as="sourcePoint" />
            <mxPoint x="-1717" y="-2578" as="targetPoint" />
          </mxGeometry>
        </mxCell>
        <mxCell id="WgCXtVQOdJW3vV8rvmdJ-813" value="" style="whiteSpace=wrap;html=1;aspect=fixed;" parent="1" vertex="1">
          <mxGeometry x="-1870" y="-2600" width="40" height="40" as="geometry" />
        </mxCell>
        <mxCell id="WgCXtVQOdJW3vV8rvmdJ-814" value="" style="whiteSpace=wrap;html=1;aspect=fixed;" parent="1" vertex="1">
          <mxGeometry x="-1830" y="-2600" width="40" height="40" as="geometry" />
        </mxCell>
        <mxCell id="WgCXtVQOdJW3vV8rvmdJ-815" value="" style="whiteSpace=wrap;html=1;aspect=fixed;" parent="1" vertex="1">
          <mxGeometry x="-1790" y="-2600" width="40" height="40" as="geometry" />
        </mxCell>
        <mxCell id="WgCXtVQOdJW3vV8rvmdJ-816" value="" style="whiteSpace=wrap;html=1;aspect=fixed;" parent="1" vertex="1">
          <mxGeometry x="-1710" y="-2600" width="40" height="40" as="geometry" />
        </mxCell>
        <mxCell id="WgCXtVQOdJW3vV8rvmdJ-817" value="" style="rounded=0;whiteSpace=wrap;html=1;" parent="1" vertex="1">
          <mxGeometry x="-1880" y="-2550" width="220" height="60" as="geometry" />
        </mxCell>
        <mxCell id="WgCXtVQOdJW3vV8rvmdJ-818" value="" style="endArrow=none;dashed=1;html=1;dashPattern=1 3;strokeWidth=3;rounded=0;exitX=1;exitY=0.5;exitDx=0;exitDy=0;entryX=0;entryY=0.5;entryDx=0;entryDy=0;" parent="1" edge="1">
          <mxGeometry width="50" height="50" relative="1" as="geometry">
            <mxPoint x="-1757" y="-2518" as="sourcePoint" />
            <mxPoint x="-1717" y="-2518" as="targetPoint" />
          </mxGeometry>
        </mxCell>
        <mxCell id="WgCXtVQOdJW3vV8rvmdJ-819" value="" style="whiteSpace=wrap;html=1;aspect=fixed;" parent="1" vertex="1">
          <mxGeometry x="-1870" y="-2540" width="40" height="40" as="geometry" />
        </mxCell>
        <mxCell id="WgCXtVQOdJW3vV8rvmdJ-820" value="" style="whiteSpace=wrap;html=1;aspect=fixed;" parent="1" vertex="1">
          <mxGeometry x="-1830" y="-2540" width="40" height="40" as="geometry" />
        </mxCell>
        <mxCell id="WgCXtVQOdJW3vV8rvmdJ-821" value="" style="whiteSpace=wrap;html=1;aspect=fixed;" parent="1" vertex="1">
          <mxGeometry x="-1790" y="-2540" width="40" height="40" as="geometry" />
        </mxCell>
        <mxCell id="WgCXtVQOdJW3vV8rvmdJ-822" value="" style="whiteSpace=wrap;html=1;aspect=fixed;" parent="1" vertex="1">
          <mxGeometry x="-1710" y="-2540" width="40" height="40" as="geometry" />
        </mxCell>
        <mxCell id="WgCXtVQOdJW3vV8rvmdJ-823" value="" style="rounded=0;whiteSpace=wrap;html=1;" parent="1" vertex="1">
          <mxGeometry x="-1880" y="-2450" width="220" height="60" as="geometry" />
        </mxCell>
        <mxCell id="WgCXtVQOdJW3vV8rvmdJ-824" value="" style="endArrow=none;dashed=1;html=1;dashPattern=1 3;strokeWidth=3;rounded=0;exitX=1;exitY=0.5;exitDx=0;exitDy=0;entryX=0;entryY=0.5;entryDx=0;entryDy=0;" parent="1" edge="1">
          <mxGeometry width="50" height="50" relative="1" as="geometry">
            <mxPoint x="-1757" y="-2418" as="sourcePoint" />
            <mxPoint x="-1717" y="-2418" as="targetPoint" />
          </mxGeometry>
        </mxCell>
        <mxCell id="WgCXtVQOdJW3vV8rvmdJ-825" value="" style="whiteSpace=wrap;html=1;aspect=fixed;" parent="1" vertex="1">
          <mxGeometry x="-1870" y="-2440" width="40" height="40" as="geometry" />
        </mxCell>
        <mxCell id="WgCXtVQOdJW3vV8rvmdJ-826" value="" style="whiteSpace=wrap;html=1;aspect=fixed;" parent="1" vertex="1">
          <mxGeometry x="-1830" y="-2440" width="40" height="40" as="geometry" />
        </mxCell>
        <mxCell id="WgCXtVQOdJW3vV8rvmdJ-827" value="" style="whiteSpace=wrap;html=1;aspect=fixed;" parent="1" vertex="1">
          <mxGeometry x="-1790" y="-2440" width="40" height="40" as="geometry" />
        </mxCell>
        <mxCell id="WgCXtVQOdJW3vV8rvmdJ-828" value="" style="whiteSpace=wrap;html=1;aspect=fixed;" parent="1" vertex="1">
          <mxGeometry x="-1710" y="-2440" width="40" height="40" as="geometry" />
        </mxCell>
        <mxCell id="WgCXtVQOdJW3vV8rvmdJ-829" value="" style="rounded=0;whiteSpace=wrap;html=1;" parent="1" vertex="1">
          <mxGeometry x="-1550" y="-2680" width="240" height="300" as="geometry" />
        </mxCell>
        <mxCell id="WgCXtVQOdJW3vV8rvmdJ-830" value="" style="endArrow=none;dashed=1;html=1;dashPattern=1 3;strokeWidth=3;rounded=0;entryX=0.5;entryY=1;entryDx=0;entryDy=0;exitX=0.5;exitY=0;exitDx=0;exitDy=0;" parent="1" edge="1">
          <mxGeometry width="50" height="50" relative="1" as="geometry">
            <mxPoint x="-1431" y="-2454" as="sourcePoint" />
            <mxPoint x="-1431" y="-2494" as="targetPoint" />
          </mxGeometry>
        </mxCell>
        <mxCell id="WgCXtVQOdJW3vV8rvmdJ-831" value="" style="rounded=0;whiteSpace=wrap;html=1;" parent="1" vertex="1">
          <mxGeometry x="-1540" y="-2670" width="220" height="60" as="geometry" />
        </mxCell>
        <mxCell id="WgCXtVQOdJW3vV8rvmdJ-832" value="" style="endArrow=none;dashed=1;html=1;dashPattern=1 3;strokeWidth=3;rounded=0;exitX=1;exitY=0.5;exitDx=0;exitDy=0;entryX=0;entryY=0.5;entryDx=0;entryDy=0;" parent="1" edge="1">
          <mxGeometry width="50" height="50" relative="1" as="geometry">
            <mxPoint x="-1417" y="-2638" as="sourcePoint" />
            <mxPoint x="-1377" y="-2638" as="targetPoint" />
          </mxGeometry>
        </mxCell>
        <mxCell id="WgCXtVQOdJW3vV8rvmdJ-833" value="" style="whiteSpace=wrap;html=1;aspect=fixed;" parent="1" vertex="1">
          <mxGeometry x="-1530" y="-2660" width="40" height="40" as="geometry" />
        </mxCell>
        <mxCell id="WgCXtVQOdJW3vV8rvmdJ-834" value="" style="whiteSpace=wrap;html=1;aspect=fixed;" parent="1" vertex="1">
          <mxGeometry x="-1490" y="-2660" width="40" height="40" as="geometry" />
        </mxCell>
        <mxCell id="WgCXtVQOdJW3vV8rvmdJ-835" value="" style="whiteSpace=wrap;html=1;aspect=fixed;" parent="1" vertex="1">
          <mxGeometry x="-1450" y="-2660" width="40" height="40" as="geometry" />
        </mxCell>
        <mxCell id="WgCXtVQOdJW3vV8rvmdJ-836" value="" style="whiteSpace=wrap;html=1;aspect=fixed;" parent="1" vertex="1">
          <mxGeometry x="-1370" y="-2660" width="40" height="40" as="geometry" />
        </mxCell>
        <mxCell id="WgCXtVQOdJW3vV8rvmdJ-837" value="" style="rounded=0;whiteSpace=wrap;html=1;" parent="1" vertex="1">
          <mxGeometry x="-1540" y="-2610" width="220" height="60" as="geometry" />
        </mxCell>
        <mxCell id="WgCXtVQOdJW3vV8rvmdJ-838" value="" style="endArrow=none;dashed=1;html=1;dashPattern=1 3;strokeWidth=3;rounded=0;exitX=1;exitY=0.5;exitDx=0;exitDy=0;entryX=0;entryY=0.5;entryDx=0;entryDy=0;" parent="1" edge="1">
          <mxGeometry width="50" height="50" relative="1" as="geometry">
            <mxPoint x="-1417" y="-2578" as="sourcePoint" />
            <mxPoint x="-1377" y="-2578" as="targetPoint" />
          </mxGeometry>
        </mxCell>
        <mxCell id="WgCXtVQOdJW3vV8rvmdJ-839" value="" style="whiteSpace=wrap;html=1;aspect=fixed;" parent="1" vertex="1">
          <mxGeometry x="-1530" y="-2600" width="40" height="40" as="geometry" />
        </mxCell>
        <mxCell id="WgCXtVQOdJW3vV8rvmdJ-840" value="" style="whiteSpace=wrap;html=1;aspect=fixed;" parent="1" vertex="1">
          <mxGeometry x="-1490" y="-2600" width="40" height="40" as="geometry" />
        </mxCell>
        <mxCell id="WgCXtVQOdJW3vV8rvmdJ-841" value="" style="whiteSpace=wrap;html=1;aspect=fixed;" parent="1" vertex="1">
          <mxGeometry x="-1450" y="-2600" width="40" height="40" as="geometry" />
        </mxCell>
        <mxCell id="WgCXtVQOdJW3vV8rvmdJ-842" value="" style="whiteSpace=wrap;html=1;aspect=fixed;" parent="1" vertex="1">
          <mxGeometry x="-1370" y="-2600" width="40" height="40" as="geometry" />
        </mxCell>
        <mxCell id="WgCXtVQOdJW3vV8rvmdJ-843" value="" style="rounded=0;whiteSpace=wrap;html=1;" parent="1" vertex="1">
          <mxGeometry x="-1540" y="-2550" width="220" height="60" as="geometry" />
        </mxCell>
        <mxCell id="WgCXtVQOdJW3vV8rvmdJ-844" value="" style="endArrow=none;dashed=1;html=1;dashPattern=1 3;strokeWidth=3;rounded=0;exitX=1;exitY=0.5;exitDx=0;exitDy=0;entryX=0;entryY=0.5;entryDx=0;entryDy=0;" parent="1" edge="1">
          <mxGeometry width="50" height="50" relative="1" as="geometry">
            <mxPoint x="-1417" y="-2518" as="sourcePoint" />
            <mxPoint x="-1377" y="-2518" as="targetPoint" />
          </mxGeometry>
        </mxCell>
        <mxCell id="WgCXtVQOdJW3vV8rvmdJ-845" value="" style="whiteSpace=wrap;html=1;aspect=fixed;" parent="1" vertex="1">
          <mxGeometry x="-1530" y="-2540" width="40" height="40" as="geometry" />
        </mxCell>
        <mxCell id="WgCXtVQOdJW3vV8rvmdJ-846" value="" style="whiteSpace=wrap;html=1;aspect=fixed;" parent="1" vertex="1">
          <mxGeometry x="-1490" y="-2540" width="40" height="40" as="geometry" />
        </mxCell>
        <mxCell id="WgCXtVQOdJW3vV8rvmdJ-847" value="" style="whiteSpace=wrap;html=1;aspect=fixed;" parent="1" vertex="1">
          <mxGeometry x="-1450" y="-2540" width="40" height="40" as="geometry" />
        </mxCell>
        <mxCell id="WgCXtVQOdJW3vV8rvmdJ-848" value="" style="whiteSpace=wrap;html=1;aspect=fixed;" parent="1" vertex="1">
          <mxGeometry x="-1370" y="-2540" width="40" height="40" as="geometry" />
        </mxCell>
        <mxCell id="WgCXtVQOdJW3vV8rvmdJ-849" value="" style="rounded=0;whiteSpace=wrap;html=1;" parent="1" vertex="1">
          <mxGeometry x="-1540" y="-2450" width="220" height="60" as="geometry" />
        </mxCell>
        <mxCell id="WgCXtVQOdJW3vV8rvmdJ-850" value="" style="endArrow=none;dashed=1;html=1;dashPattern=1 3;strokeWidth=3;rounded=0;exitX=1;exitY=0.5;exitDx=0;exitDy=0;entryX=0;entryY=0.5;entryDx=0;entryDy=0;" parent="1" edge="1">
          <mxGeometry width="50" height="50" relative="1" as="geometry">
            <mxPoint x="-1417" y="-2418" as="sourcePoint" />
            <mxPoint x="-1377" y="-2418" as="targetPoint" />
          </mxGeometry>
        </mxCell>
        <mxCell id="WgCXtVQOdJW3vV8rvmdJ-851" value="" style="whiteSpace=wrap;html=1;aspect=fixed;" parent="1" vertex="1">
          <mxGeometry x="-1530" y="-2440" width="40" height="40" as="geometry" />
        </mxCell>
        <mxCell id="WgCXtVQOdJW3vV8rvmdJ-852" value="" style="whiteSpace=wrap;html=1;aspect=fixed;" parent="1" vertex="1">
          <mxGeometry x="-1490" y="-2440" width="40" height="40" as="geometry" />
        </mxCell>
        <mxCell id="WgCXtVQOdJW3vV8rvmdJ-853" value="" style="whiteSpace=wrap;html=1;aspect=fixed;" parent="1" vertex="1">
          <mxGeometry x="-1450" y="-2440" width="40" height="40" as="geometry" />
        </mxCell>
        <mxCell id="WgCXtVQOdJW3vV8rvmdJ-854" value="" style="whiteSpace=wrap;html=1;aspect=fixed;" parent="1" vertex="1">
          <mxGeometry x="-1370" y="-2440" width="40" height="40" as="geometry" />
        </mxCell>
        <mxCell id="WgCXtVQOdJW3vV8rvmdJ-2454" value="" style="whiteSpace=wrap;html=1;aspect=fixed;fillColor=#f8cecc;strokeColor=#b85450;" parent="1" vertex="1">
          <mxGeometry x="-2130" y="-3380" width="40" height="40" as="geometry" />
        </mxCell>
        <mxCell id="WgCXtVQOdJW3vV8rvmdJ-2455" value="" style="whiteSpace=wrap;html=1;aspect=fixed;fillColor=#f8cecc;strokeColor=#b85450;" parent="1" vertex="1">
          <mxGeometry x="-2090" y="-3380" width="40" height="40" as="geometry" />
        </mxCell>
        <mxCell id="WgCXtVQOdJW3vV8rvmdJ-2456" value="" style="whiteSpace=wrap;html=1;aspect=fixed;fillColor=#f8cecc;strokeColor=#b85450;" parent="1" vertex="1">
          <mxGeometry x="-2050" y="-3380" width="40" height="40" as="geometry" />
        </mxCell>
        <mxCell id="WgCXtVQOdJW3vV8rvmdJ-2457" value="" style="whiteSpace=wrap;html=1;aspect=fixed;fillColor=#f8cecc;strokeColor=#b85450;" parent="1" vertex="1">
          <mxGeometry x="-1970" y="-3380" width="40" height="40" as="geometry" />
        </mxCell>
        <mxCell id="WgCXtVQOdJW3vV8rvmdJ-2458" value="" style="whiteSpace=wrap;html=1;aspect=fixed;fillColor=#f8cecc;strokeColor=#b85450;" parent="1" vertex="1">
          <mxGeometry x="-1970" y="-3320" width="40" height="40" as="geometry" />
        </mxCell>
        <mxCell id="WgCXtVQOdJW3vV8rvmdJ-2459" value="" style="whiteSpace=wrap;html=1;aspect=fixed;fillColor=#f8cecc;strokeColor=#b85450;" parent="1" vertex="1">
          <mxGeometry x="-1970" y="-3260" width="40" height="40" as="geometry" />
        </mxCell>
        <mxCell id="WgCXtVQOdJW3vV8rvmdJ-447" value="&lt;font style=&quot;font-size: 52px;&quot;&gt;Thread&lt;/font&gt;" style="text;html=1;strokeColor=#b85450;fillColor=#f8cecc;align=center;verticalAlign=middle;whiteSpace=wrap;rounded=0;fontSize=52;container=0;glass=0;shadow=0;fontStyle=0;fontFamily=Input Mono;" parent="1" vertex="1">
          <mxGeometry x="-3280" y="-3350" width="200" height="100" as="geometry" />
        </mxCell>
        <mxCell id="WgCXtVQOdJW3vV8rvmdJ-437" value="" style="endArrow=none;html=1;rounded=0;" parent="1" source="WgCXtVQOdJW3vV8rvmdJ-438" target="WgCXtVQOdJW3vV8rvmdJ-503" edge="1">
          <mxGeometry width="50" height="50" relative="1" as="geometry">
            <mxPoint x="-2006.357142857143" y="-3277.11609103079" as="sourcePoint" />
            <mxPoint x="-1802.7857142857142" y="-2795.1883801874164" as="targetPoint" />
          </mxGeometry>
        </mxCell>
        <mxCell id="lvBQtaloteuIdcC0b4F5-4" value="" style="endArrow=none;dashed=1;html=1;dashPattern=1 3;strokeWidth=2;rounded=0;entryX=0;entryY=1;entryDx=0;entryDy=0;exitX=0;exitY=1;exitDx=0;exitDy=0;" edge="1" parent="1" source="WgCXtVQOdJW3vV8rvmdJ-503" target="WgCXtVQOdJW3vV8rvmdJ-193">
          <mxGeometry width="50" height="50" relative="1" as="geometry">
            <mxPoint x="-1808" y="-2902" as="sourcePoint" />
            <mxPoint x="-2061" y="-3100" as="targetPoint" />
          </mxGeometry>
        </mxCell>
        <mxCell id="WgCXtVQOdJW3vV8rvmdJ-503" value="" style="rounded=0;whiteSpace=wrap;html=1;fillColor=#d5e8d4;strokeColor=#82b366;shadow=1;container=0;aspect=fixed;opacity=80;" parent="1" vertex="1">
          <mxGeometry x="-3230" y="-3190" width="670" height="830" as="geometry" />
        </mxCell>
        <mxCell id="WgCXtVQOdJW3vV8rvmdJ-505" value="" style="rounded=0;whiteSpace=wrap;html=1;fillColor=#dae8fc;strokeColor=#6c8ebf;shadow=1;container=0;" parent="1" vertex="1">
          <mxGeometry x="-3200" y="-3160" width="620" height="170" as="geometry" />
        </mxCell>
        <mxCell id="WgCXtVQOdJW3vV8rvmdJ-507" value="1" style="whiteSpace=wrap;html=1;aspect=fixed;fillColor=#f8cecc;strokeColor=#b85450;shadow=1;fontSize=32;container=0;fontFamily=Input Mono;" parent="1" vertex="1">
          <mxGeometry x="-3170" y="-3140" width="110" height="110" as="geometry" />
        </mxCell>
        <mxCell id="WgCXtVQOdJW3vV8rvmdJ-508" value="2" style="whiteSpace=wrap;html=1;aspect=fixed;fillColor=#f8cecc;strokeColor=#b85450;shadow=1;fontSize=32;container=0;fontFamily=Input Mono;" parent="1" vertex="1">
          <mxGeometry x="-3060" y="-3140" width="110" height="110" as="geometry" />
        </mxCell>
        <mxCell id="WgCXtVQOdJW3vV8rvmdJ-509" value="3" style="whiteSpace=wrap;html=1;aspect=fixed;fillColor=#f8cecc;strokeColor=#b85450;shadow=1;fontSize=32;container=0;fontFamily=Input Mono;" parent="1" vertex="1">
          <mxGeometry x="-2950" y="-3140" width="110" height="110" as="geometry" />
        </mxCell>
        <mxCell id="WgCXtVQOdJW3vV8rvmdJ-510" value="32" style="whiteSpace=wrap;html=1;aspect=fixed;fillColor=#f8cecc;strokeColor=#b85450;shadow=1;fontSize=32;container=0;fontFamily=Input Mono;" parent="1" vertex="1">
          <mxGeometry x="-2720" y="-3140" width="110" height="110" as="geometry" />
        </mxCell>
        <mxCell id="WgCXtVQOdJW3vV8rvmdJ-511" value="" style="rounded=0;whiteSpace=wrap;html=1;fillColor=#dae8fc;strokeColor=#6c8ebf;shadow=1;container=0;" parent="1" vertex="1">
          <mxGeometry x="-3200" y="-3000" width="620" height="170" as="geometry" />
        </mxCell>
        <mxCell id="WgCXtVQOdJW3vV8rvmdJ-513" value="1" style="whiteSpace=wrap;html=1;aspect=fixed;fillColor=#f8cecc;strokeColor=#b85450;shadow=1;fontSize=32;container=0;fontFamily=Input Mono;" parent="1" vertex="1">
          <mxGeometry x="-3170" y="-2970" width="110" height="110" as="geometry" />
        </mxCell>
        <mxCell id="WgCXtVQOdJW3vV8rvmdJ-514" value="2" style="whiteSpace=wrap;html=1;aspect=fixed;fillColor=#f8cecc;strokeColor=#b85450;shadow=1;fontSize=32;container=0;fontFamily=Input Mono;" parent="1" vertex="1">
          <mxGeometry x="-3060" y="-2970" width="110" height="110" as="geometry" />
        </mxCell>
        <mxCell id="WgCXtVQOdJW3vV8rvmdJ-515" value="3" style="whiteSpace=wrap;html=1;aspect=fixed;fillColor=#f8cecc;strokeColor=#b85450;shadow=1;fontSize=32;container=0;fontFamily=Input Mono;" parent="1" vertex="1">
          <mxGeometry x="-2950" y="-2970" width="110" height="110" as="geometry" />
        </mxCell>
        <mxCell id="WgCXtVQOdJW3vV8rvmdJ-516" value="32" style="whiteSpace=wrap;html=1;aspect=fixed;fillColor=#f8cecc;strokeColor=#b85450;shadow=1;fontSize=32;container=0;fontFamily=Input Mono;" parent="1" vertex="1">
          <mxGeometry x="-2720" y="-2970" width="110" height="110" as="geometry" />
        </mxCell>
        <mxCell id="WgCXtVQOdJW3vV8rvmdJ-517" value="" style="rounded=0;whiteSpace=wrap;html=1;fillColor=#dae8fc;strokeColor=#6c8ebf;shadow=1;container=0;" parent="1" vertex="1">
          <mxGeometry x="-3200" y="-2830" width="620" height="170" as="geometry" />
        </mxCell>
        <mxCell id="WgCXtVQOdJW3vV8rvmdJ-519" value="1" style="whiteSpace=wrap;html=1;aspect=fixed;fillColor=#f8cecc;strokeColor=#b85450;shadow=1;fontSize=32;container=0;fontFamily=Input Mono;" parent="1" vertex="1">
          <mxGeometry x="-3170" y="-2800" width="110" height="110" as="geometry" />
        </mxCell>
        <mxCell id="WgCXtVQOdJW3vV8rvmdJ-520" value="2" style="whiteSpace=wrap;html=1;aspect=fixed;fillColor=#f8cecc;strokeColor=#b85450;shadow=1;fontSize=32;container=0;fontFamily=Input Mono;" parent="1" vertex="1">
          <mxGeometry x="-3060" y="-2800" width="110" height="110" as="geometry" />
        </mxCell>
        <mxCell id="WgCXtVQOdJW3vV8rvmdJ-521" value="3" style="whiteSpace=wrap;html=1;aspect=fixed;fillColor=#f8cecc;strokeColor=#b85450;shadow=1;fontSize=32;container=0;fontFamily=Input Mono;" parent="1" vertex="1">
          <mxGeometry x="-2950" y="-2800" width="110" height="110" as="geometry" />
        </mxCell>
        <mxCell id="WgCXtVQOdJW3vV8rvmdJ-522" value="32" style="whiteSpace=wrap;html=1;aspect=fixed;fillColor=#f8cecc;strokeColor=#b85450;shadow=1;fontSize=32;container=0;fontFamily=Input Mono;" parent="1" vertex="1">
          <mxGeometry x="-2720" y="-2800" width="110" height="110" as="geometry" />
        </mxCell>
        <mxCell id="WgCXtVQOdJW3vV8rvmdJ-523" value="" style="rounded=0;whiteSpace=wrap;html=1;fillColor=#dae8fc;strokeColor=#6c8ebf;shadow=1;container=0;" parent="1" vertex="1">
          <mxGeometry x="-3200" y="-2550" width="620" height="170" as="geometry" />
        </mxCell>
        <mxCell id="WgCXtVQOdJW3vV8rvmdJ-525" value="1" style="whiteSpace=wrap;html=1;aspect=fixed;fillColor=#f8cecc;strokeColor=#b85450;shadow=1;fontSize=32;container=0;fontFamily=Input Mono;" parent="1" vertex="1">
          <mxGeometry x="-3170" y="-2520" width="110" height="110" as="geometry" />
        </mxCell>
        <mxCell id="WgCXtVQOdJW3vV8rvmdJ-526" value="2" style="whiteSpace=wrap;html=1;aspect=fixed;fillColor=#f8cecc;strokeColor=#b85450;shadow=1;fontSize=32;container=0;fontFamily=Input Mono;" parent="1" vertex="1">
          <mxGeometry x="-3060" y="-2520" width="110" height="110" as="geometry" />
        </mxCell>
        <mxCell id="WgCXtVQOdJW3vV8rvmdJ-527" value="3" style="whiteSpace=wrap;html=1;aspect=fixed;fillColor=#f8cecc;strokeColor=#b85450;shadow=1;fontSize=32;container=0;fontFamily=Input Mono;" parent="1" vertex="1">
          <mxGeometry x="-2950" y="-2520" width="110" height="110" as="geometry" />
        </mxCell>
        <mxCell id="WgCXtVQOdJW3vV8rvmdJ-528" value="32" style="whiteSpace=wrap;html=1;aspect=fixed;fillColor=#f8cecc;strokeColor=#b85450;shadow=1;fontSize=32;container=0;fontFamily=Input Mono;" parent="1" vertex="1">
          <mxGeometry x="-2720" y="-2520" width="110" height="110" as="geometry" />
        </mxCell>
        <mxCell id="WgCXtVQOdJW3vV8rvmdJ-607" value="" style="whiteSpace=wrap;html=1;aspect=fixed;fillColor=#000000;strokeWidth=0;shadow=0;container=0;" parent="1" vertex="1">
          <mxGeometry x="-2825" y="-2750" width="10" height="10" as="geometry" />
        </mxCell>
        <mxCell id="WgCXtVQOdJW3vV8rvmdJ-606" value="" style="whiteSpace=wrap;html=1;aspect=fixed;fillColor=#000000;strokeWidth=0;shadow=0;container=0;" parent="1" vertex="1">
          <mxGeometry x="-2785" y="-2750" width="10" height="10" as="geometry" />
        </mxCell>
        <mxCell id="WgCXtVQOdJW3vV8rvmdJ-605" value="" style="whiteSpace=wrap;html=1;aspect=fixed;fillColor=#000000;strokeWidth=0;shadow=0;container=0;" parent="1" vertex="1">
          <mxGeometry x="-2745" y="-2750" width="10" height="10" as="geometry" />
        </mxCell>
        <mxCell id="WgCXtVQOdJW3vV8rvmdJ-608" value="" style="whiteSpace=wrap;html=1;aspect=fixed;fillColor=#000000;strokeWidth=0;shadow=0;container=0;" parent="1" vertex="1">
          <mxGeometry x="-2825" y="-2470" width="10" height="10" as="geometry" />
        </mxCell>
        <mxCell id="WgCXtVQOdJW3vV8rvmdJ-609" value="" style="whiteSpace=wrap;html=1;aspect=fixed;fillColor=#000000;strokeWidth=0;shadow=0;container=0;" parent="1" vertex="1">
          <mxGeometry x="-2785" y="-2470" width="10" height="10" as="geometry" />
        </mxCell>
        <mxCell id="WgCXtVQOdJW3vV8rvmdJ-610" value="" style="whiteSpace=wrap;html=1;aspect=fixed;fillColor=#000000;strokeWidth=0;shadow=0;container=0;" parent="1" vertex="1">
          <mxGeometry x="-2745" y="-2470" width="10" height="10" as="geometry" />
        </mxCell>
        <mxCell id="WgCXtVQOdJW3vV8rvmdJ-617" value="" style="whiteSpace=wrap;html=1;aspect=fixed;fillColor=#000000;strokeWidth=0;direction=south;rotation=0;flipH=1;flipV=1;shadow=0;container=0;" parent="1" vertex="1">
          <mxGeometry x="-2890" y="-2640" width="10" height="10" as="geometry" />
        </mxCell>
        <mxCell id="WgCXtVQOdJW3vV8rvmdJ-618" value="" style="whiteSpace=wrap;html=1;aspect=fixed;fillColor=#000000;strokeWidth=0;direction=south;rotation=0;flipH=1;flipV=1;shadow=0;container=0;" parent="1" vertex="1">
          <mxGeometry x="-2890" y="-2610" width="10" height="10" as="geometry" />
        </mxCell>
        <mxCell id="WgCXtVQOdJW3vV8rvmdJ-619" value="" style="whiteSpace=wrap;html=1;aspect=fixed;fillColor=#000000;strokeWidth=0;direction=south;rotation=0;flipH=1;flipV=1;shadow=0;container=0;" parent="1" vertex="1">
          <mxGeometry x="-2890" y="-2580" width="10" height="10" as="geometry" />
        </mxCell>
        <mxCell id="WgCXtVQOdJW3vV8rvmdJ-535" value="" style="whiteSpace=wrap;html=1;aspect=fixed;fillColor=#000000;strokeWidth=0;shadow=0;container=0;" parent="1" vertex="1">
          <mxGeometry x="-2745" y="-3080" width="10" height="10" as="geometry" />
        </mxCell>
        <mxCell id="WgCXtVQOdJW3vV8rvmdJ-564" value="" style="whiteSpace=wrap;html=1;aspect=fixed;fillColor=#000000;strokeWidth=0;shadow=0;container=0;" parent="1" vertex="1">
          <mxGeometry x="-2785" y="-3080" width="10" height="10" as="geometry" />
        </mxCell>
        <mxCell id="WgCXtVQOdJW3vV8rvmdJ-565" value="" style="whiteSpace=wrap;html=1;aspect=fixed;fillColor=#000000;strokeWidth=0;shadow=0;container=0;" parent="1" vertex="1">
          <mxGeometry x="-2825" y="-3080" width="10" height="10" as="geometry" />
        </mxCell>
        <mxCell id="WgCXtVQOdJW3vV8rvmdJ-599" value="" style="whiteSpace=wrap;html=1;aspect=fixed;fillColor=#000000;strokeWidth=0;shadow=0;container=0;" parent="1" vertex="1">
          <mxGeometry x="-2745" y="-2920" width="10" height="10" as="geometry" />
        </mxCell>
        <mxCell id="WgCXtVQOdJW3vV8rvmdJ-601" value="" style="whiteSpace=wrap;html=1;aspect=fixed;fillColor=#000000;strokeWidth=0;shadow=0;container=0;" parent="1" vertex="1">
          <mxGeometry x="-2825" y="-2920" width="10" height="10" as="geometry" />
        </mxCell>
        <mxCell id="WgCXtVQOdJW3vV8rvmdJ-600" value="" style="whiteSpace=wrap;html=1;aspect=fixed;fillColor=#000000;strokeWidth=0;shadow=0;container=0;" parent="1" vertex="1">
          <mxGeometry x="-2785" y="-2920" width="10" height="10" as="geometry" />
        </mxCell>
        <mxCell id="WgCXtVQOdJW3vV8rvmdJ-433" value="" style="endArrow=none;html=1;rounded=0;shadow=0;" parent="1" source="WgCXtVQOdJW3vV8rvmdJ-447" target="WgCXtVQOdJW3vV8rvmdJ-507" edge="1">
          <mxGeometry width="50" height="50" relative="1" as="geometry">
            <mxPoint x="-2447.4285714285716" y="-3271.306184738956" as="sourcePoint" />
            <mxPoint x="-1802.7857142857142" y="-2795.1883801874164" as="targetPoint" />
          </mxGeometry>
        </mxCell>
        <mxCell id="WgCXtVQOdJW3vV8rvmdJ-435" value="" style="endArrow=none;html=1;rounded=0;shadow=0;" parent="1" source="WgCXtVQOdJW3vV8rvmdJ-436" target="WgCXtVQOdJW3vV8rvmdJ-505" edge="1">
          <mxGeometry width="50" height="50" relative="1" as="geometry">
            <mxPoint x="-2169.2142857142853" y="-3277.11609103079" as="sourcePoint" />
            <mxPoint x="-1802.7857142857142" y="-2795.1883801874164" as="targetPoint" />
          </mxGeometry>
        </mxCell>
        <mxCell id="lvBQtaloteuIdcC0b4F5-2" value="" style="endArrow=none;dashed=1;html=1;dashPattern=1 3;strokeWidth=2;rounded=0;exitX=1;exitY=0;exitDx=0;exitDy=0;entryX=1;entryY=0;entryDx=0;entryDy=0;" edge="1" parent="1" source="WgCXtVQOdJW3vV8rvmdJ-503" target="WgCXtVQOdJW3vV8rvmdJ-193">
          <mxGeometry width="50" height="50" relative="1" as="geometry">
            <mxPoint x="-3098" y="-3249" as="sourcePoint" />
            <mxPoint x="-1821" y="-3400" as="targetPoint" />
          </mxGeometry>
        </mxCell>
        <mxCell id="lvBQtaloteuIdcC0b4F5-3" value="" style="endArrow=none;dashed=1;html=1;dashPattern=1 3;strokeWidth=2;rounded=0;exitX=1;exitY=1;exitDx=0;exitDy=0;entryX=1;entryY=1;entryDx=0;entryDy=0;" edge="1" parent="1" source="WgCXtVQOdJW3vV8rvmdJ-503" target="WgCXtVQOdJW3vV8rvmdJ-193">
          <mxGeometry width="50" height="50" relative="1" as="geometry">
            <mxPoint x="-2433" y="-3249" as="sourcePoint" />
            <mxPoint x="-1821" y="-3100" as="targetPoint" />
          </mxGeometry>
        </mxCell>
        <mxCell id="lvBQtaloteuIdcC0b4F5-1" value="" style="endArrow=none;dashed=1;html=1;dashPattern=1 3;strokeWidth=2;rounded=0;exitX=0;exitY=0;exitDx=0;exitDy=0;entryX=0;entryY=0;entryDx=0;entryDy=0;" edge="1" parent="1" source="WgCXtVQOdJW3vV8rvmdJ-503" target="WgCXtVQOdJW3vV8rvmdJ-193">
          <mxGeometry width="50" height="50" relative="1" as="geometry">
            <mxPoint x="-1808" y="-2902" as="sourcePoint" />
            <mxPoint x="-2061" y="-3400" as="targetPoint" />
          </mxGeometry>
        </mxCell>
        <mxCell id="WgCXtVQOdJW3vV8rvmdJ-438" value="&lt;font style=&quot;font-size: 52px;&quot;&gt;Block&lt;/font&gt;" style="text;html=1;strokeColor=#82b366;fillColor=#d5e8d4;align=center;verticalAlign=middle;whiteSpace=wrap;rounded=0;fontSize=52;glass=0;shadow=0;fontStyle=0;container=0;fontFamily=Input Mono;" parent="1" vertex="1">
          <mxGeometry x="-2720" y="-3350" width="200" height="100" as="geometry" />
        </mxCell>
        <mxCell id="WgCXtVQOdJW3vV8rvmdJ-436" value="&lt;font style=&quot;font-size: 52px;&quot;&gt;Warp&lt;/font&gt;" style="text;html=1;strokeColor=#6c8ebf;fillColor=#dae8fc;align=center;verticalAlign=middle;whiteSpace=wrap;rounded=0;fontSize=52;labelBorderColor=none;labelBackgroundColor=none;glass=0;shadow=0;fontStyle=0;container=0;fontFamily=Input Mono;" parent="1" vertex="1">
          <mxGeometry x="-3000" y="-3350" width="200" height="100" as="geometry" />
        </mxCell>
        <mxCell id="lvBQtaloteuIdcC0b4F5-6" style="edgeStyle=orthogonalEdgeStyle;rounded=0;orthogonalLoop=1;jettySize=auto;html=1;exitX=-0.001;exitY=0.485;exitDx=0;exitDy=0;exitPerimeter=0;entryX=0.998;entryY=0.107;entryDx=0;entryDy=0;entryPerimeter=0;" edge="1" parent="1" source="lvBQtaloteuIdcC0b4F5-5" target="WgCXtVQOdJW3vV8rvmdJ-432">
          <mxGeometry relative="1" as="geometry">
            <mxPoint x="-938" y="-2420" as="sourcePoint" />
            <mxPoint x="-1298" y="-2370" as="targetPoint" />
            <Array as="points">
              <mxPoint x="-1120" y="-3420" />
              <mxPoint x="-1160" y="-3420" />
              <mxPoint x="-1160" y="-3307" />
            </Array>
          </mxGeometry>
        </mxCell>
        <mxCell id="lvBQtaloteuIdcC0b4F5-5" value="&lt;font style=&quot;font-size: 52px;&quot;&gt;&lt;font style=&quot;font-size: 52px;&quot;&gt;Kernel 1&lt;/font&gt;&lt;br style=&quot;font-size: 52px;&quot;&gt;&lt;/font&gt;" style="rounded=0;whiteSpace=wrap;html=1;fontSize=52;fontFamily=Input Mono;" vertex="1" parent="1">
          <mxGeometry x="-1120" y="-3500" width="280" height="120" as="geometry" />
        </mxCell>
        <mxCell id="lvBQtaloteuIdcC0b4F5-7" style="edgeStyle=orthogonalEdgeStyle;rounded=0;orthogonalLoop=1;jettySize=auto;html=1;exitX=0;exitY=0.5;exitDx=0;exitDy=0;" edge="1" parent="1" source="lvBQtaloteuIdcC0b4F5-8">
          <mxGeometry relative="1" as="geometry">
            <mxPoint x="-901" y="-2437" as="sourcePoint" />
            <mxPoint x="-1260" y="-3220" as="targetPoint" />
            <Array as="points">
              <mxPoint x="-1100" y="-3260" />
              <mxPoint x="-1160" y="-3260" />
              <mxPoint x="-1160" y="-3220" />
              <mxPoint x="-1257" y="-3220" />
            </Array>
          </mxGeometry>
        </mxCell>
        <mxCell id="lvBQtaloteuIdcC0b4F5-8" value="&lt;font style=&quot;font-size: 52px;&quot;&gt;&lt;font style=&quot;font-size: 52px;&quot;&gt;Kernel 2&lt;/font&gt;&lt;br style=&quot;font-size: 52px;&quot;&gt;&lt;/font&gt;" style="rounded=0;whiteSpace=wrap;html=1;fontSize=52;fontFamily=Input Mono;" vertex="1" parent="1">
          <mxGeometry x="-1120" y="-3340" width="280" height="120" as="geometry" />
        </mxCell>
        <mxCell id="lvBQtaloteuIdcC0b4F5-13" value="" style="whiteSpace=wrap;html=1;aspect=fixed;fillColor=#000000;strokeWidth=0;direction=south;rotation=0;flipH=1;flipV=1;shadow=0;container=0;" vertex="1" parent="1">
          <mxGeometry x="-985" y="-2870" width="10" height="10" as="geometry" />
        </mxCell>
        <mxCell id="lvBQtaloteuIdcC0b4F5-14" value="" style="whiteSpace=wrap;html=1;aspect=fixed;fillColor=#000000;strokeWidth=0;direction=south;rotation=0;flipH=1;flipV=1;shadow=0;container=0;" vertex="1" parent="1">
          <mxGeometry x="-985" y="-2840" width="10" height="10" as="geometry" />
        </mxCell>
        <mxCell id="lvBQtaloteuIdcC0b4F5-15" value="" style="whiteSpace=wrap;html=1;aspect=fixed;fillColor=#000000;strokeWidth=0;direction=south;rotation=0;flipH=1;flipV=1;shadow=0;container=0;" vertex="1" parent="1">
          <mxGeometry x="-985" y="-2810" width="10" height="10" as="geometry" />
        </mxCell>
        <mxCell id="lvBQtaloteuIdcC0b4F5-26" style="edgeStyle=orthogonalEdgeStyle;rounded=0;orthogonalLoop=1;jettySize=auto;html=1;exitX=0;exitY=0.5;exitDx=0;exitDy=0;" edge="1" parent="1" source="lvBQtaloteuIdcC0b4F5-25" target="WgCXtVQOdJW3vV8rvmdJ-2450">
          <mxGeometry relative="1" as="geometry">
            <Array as="points">
              <mxPoint x="-1100" y="-3120" />
              <mxPoint x="-1100" y="-3100" />
              <mxPoint x="-1160" y="-3100" />
              <mxPoint x="-1160" y="-3140" />
            </Array>
          </mxGeometry>
        </mxCell>
        <mxCell id="lvBQtaloteuIdcC0b4F5-25" value="&lt;font style=&quot;font-size: 52px;&quot;&gt;Kernel 3&lt;br style=&quot;font-size: 52px;&quot;&gt;&lt;/font&gt;" style="rounded=0;whiteSpace=wrap;html=1;fontSize=52;fontFamily=Input Mono;" vertex="1" parent="1">
          <mxGeometry x="-1120" y="-3180" width="280" height="120" as="geometry" />
        </mxCell>
        <mxCell id="lvBQtaloteuIdcC0b4F5-28" style="edgeStyle=orthogonalEdgeStyle;rounded=0;orthogonalLoop=1;jettySize=auto;html=1;exitX=0;exitY=0.25;exitDx=0;exitDy=0;" edge="1" parent="1" source="lvBQtaloteuIdcC0b4F5-27" target="WgCXtVQOdJW3vV8rvmdJ-2451">
          <mxGeometry relative="1" as="geometry">
            <Array as="points">
              <mxPoint x="-1120" y="-2980" />
              <mxPoint x="-1160" y="-2980" />
              <mxPoint x="-1160" y="-3050" />
            </Array>
          </mxGeometry>
        </mxCell>
        <mxCell id="lvBQtaloteuIdcC0b4F5-27" value="&lt;font style=&quot;font-size: 52px;&quot;&gt;Kernel 4&lt;br style=&quot;font-size: 52px;&quot;&gt;&lt;/font&gt;" style="rounded=0;whiteSpace=wrap;html=1;fontSize=52;fontFamily=Input Mono;" vertex="1" parent="1">
          <mxGeometry x="-1120" y="-3020" width="280" height="120" as="geometry" />
        </mxCell>
      </root>
    </mxGraphModel>
  </diagram>
</mxfile>
